<svg width="184" height="63" viewBox="0 0 184 63" fill="none" xmlns="http://www.w3.org/2000/svg">
<path d="M42.5965 17.4587C32.072 17.4587 23.4531 23.8804 23.4531 31.7703C23.4531 39.6602 32.072 46.5406 42.5965 46.5406C53.2117 46.5406 61.832 39.6602 61.832 31.7703C61.832 23.8804 53.2117 17.4587 42.5965 17.4587ZM42.5965 18.4676C51.76 18.4676 59.2005 24.4308 59.2005 31.7703C59.2005 39.1098 51.76 45.5318 42.5965 45.5318C33.4329 45.5318 25.9942 39.1098 25.9942 31.7703C25.9942 24.4308 33.4329 18.4676 42.5965 18.4676Z" fill="#02041A" fill-opacity="0.8"/>
<path d="M76.5296 23.2393L64.6445 41.6793H68.7273L71.7203 36.9076H78.5249V41.6793H82.3366V23.2393H76.5296ZM78.5249 26.3571V33.6965H73.8078C74.1707 33.2378 78.5249 26.3571 78.5249 26.3571Z" fill="#02041A" fill-opacity="0.8"/>
<path d="M158.004 38.651C157.097 38.651 156.461 39.2943 156.461 40.2117C156.461 41.0374 157.097 41.6792 158.004 41.6792C158.912 41.6792 159.546 41.0374 159.546 40.2117C159.546 39.2943 158.912 38.651 158.004 38.651ZM158.004 38.8356C158.73 38.8356 159.365 39.2943 159.365 40.2117C159.365 41.0374 158.73 41.4947 158.004 41.4947C157.279 41.4947 156.734 41.0374 156.734 40.2117C156.734 39.2943 157.279 38.8356 158.004 38.8356Z" fill="#02041A" fill-opacity="0.8"/>
<path d="M157.459 39.2943V40.9446H157.732V40.3031H157.913L158.458 40.9446H158.73L158.276 40.2117C158.457 40.2117 158.639 40.0283 158.639 39.753C158.639 39.4777 158.368 39.2943 158.005 39.2943H157.459ZM157.732 39.5685H158.005C158.186 39.5685 158.276 39.6615 158.276 39.753C158.276 39.9365 158.186 40.0272 158.005 40.0272H157.732V39.5685Z" fill="#02041A" fill-opacity="0.8"/>
<path d="M91.5 41.6789H95.3106V23.2385H91.5V41.6789Z" fill="#02041A" fill-opacity="0.8"/>
<path d="M84.7852 41.6789H88.6865V23.2385H84.7852V41.6789Z" fill="#02041A" fill-opacity="0.8"/>
<path d="M147.661 27.3677C145.937 27.3677 144.484 27.9174 143.396 28.9266C142.035 30.211 141.4 32.1372 141.4 34.5226C141.4 38.9262 143.941 41.6792 148.205 41.6792C150.201 41.6792 152.106 41.1277 153.649 40.1185L153.739 40.0272L153.285 37.1835L153.105 37.2749C151.472 38.3758 150.111 38.8356 148.568 38.8356C146.572 38.8356 145.301 37.5504 145.12 35.3486H153.739L153.829 34.4312C153.829 29.7523 151.743 27.3677 147.751 27.3677H147.661ZM147.661 29.9354C149.566 29.9354 150.11 31.5871 150.11 33.055H145.12C145.301 31.0367 146.209 29.9354 147.661 29.9354Z" fill="#02041A" fill-opacity="0.8"/>
<path d="M133.87 23.2385V27.6422H131.965V30.578H133.87V37.5504C133.87 40.3027 135.322 41.6789 138.497 41.6789C139.495 41.6789 140.13 41.4955 140.675 41.4036H140.856L140.312 38.3761H140.13C139.858 38.4679 139.586 38.468 139.132 38.468C138.044 38.468 137.499 38.0093 137.499 37V30.578H140.221L140.312 27.6423H137.499V23.2386H133.87" fill="#02041A" fill-opacity="0.8"/>
<path d="M125.342 27.3677C123.073 27.3677 121.259 27.9178 119.898 28.3765L119.806 28.4679L120.259 31.4047L120.442 31.3116C122.075 30.5776 123.525 30.2114 124.886 30.2114C126.338 30.2114 127.064 30.8536 127.064 32.0462V32.4135C121.53 32.964 118.898 34.7071 118.898 37.9181C118.898 40.2117 120.441 41.6792 122.891 41.6792C124.615 41.6792 125.976 41.1284 127.337 39.9358L127.61 41.4033H130.785V31.9548C130.785 28.8355 129.061 27.3677 125.342 27.3677ZM127.064 34.614V37.6422C126.157 38.4679 125.16 38.927 124.071 38.927C123.164 38.927 122.62 38.3765 122.62 37.5508C122.62 35.9912 124.161 34.9809 127.064 34.614Z" fill="#02041A" fill-opacity="0.8"/>
<path d="M110.915 23.2386V27.6423H109.01V30.5781H110.915V37.5506C110.915 40.3029 112.457 41.679 115.542 41.679C116.54 41.679 117.175 41.5871 117.72 41.4037H117.901L117.447 38.3762H117.266C116.994 38.4681 116.631 38.4681 116.177 38.4681C115.089 38.4681 114.544 38.0094 114.544 37.0002V30.5782H117.357V27.6424H114.544V23.2387H110.915" fill="#02041A" fill-opacity="0.8"/>
<path d="M98.5758 28.7433C97.85 29.4772 97.4871 30.3946 97.4871 31.4956C97.578 34.2478 98.9388 35.0735 102.296 35.8992C104.473 36.3579 104.927 36.7249 104.927 37.7341C104.927 38.5598 104.382 38.9268 102.84 38.9268C101.298 38.9268 99.4831 38.3763 98.0315 37.4589L97.7592 37.2755L97.2148 40.303L97.3962 40.3948C98.5757 41.037 100.572 41.6792 102.749 41.6792C104.836 41.6792 106.378 41.2205 107.286 40.3031C108.011 39.5692 108.374 38.56 108.374 37.3673C108.374 34.4315 106.741 33.6976 103.384 32.8719C101.298 32.3215 100.935 32.0462 100.935 31.2205C101.026 30.5783 101.66 30.1196 102.658 30.1196C103.929 30.1196 105.562 30.5783 106.923 31.3123L107.104 31.4042L107.649 28.3766L107.467 28.2848C106.106 27.7343 104.473 27.3673 102.658 27.3673C100.935 27.3673 99.483 27.9178 98.5757 28.7435" fill="#02041A" fill-opacity="0.8"/>
<path d="M29.9868 23.3307L29.1699 24.1567C29.2608 24.1567 29.441 24.3395 29.441 24.3395C29.5319 24.3395 30.7109 25.2562 30.8923 25.4397C30.8015 25.5316 30.3483 26.8159 30.3483 26.8159C29.8947 27.9168 29.441 29.0184 29.441 29.8441V30.0269L29.8043 31.9549V32.0463C30.0766 33.1472 30.2572 34.247 30.4387 35.0727C30.4387 35.3481 30.4398 35.4397 30.6212 35.5315C31.1656 36.0819 32.0732 37.2749 33.2527 39.5685C33.2527 39.6604 33.3431 39.6615 33.3431 39.7531C33.4339 40.0284 33.6157 40.2115 33.7063 40.3032C33.9786 40.4866 34.3415 40.4866 34.6136 40.3032C35.158 39.9362 35.6102 39.4779 35.8824 38.8356C35.9733 38.9275 36.2457 39.2026 36.2457 39.2944C35.2477 40.9457 36.9715 41.5872 37.6066 41.312C37.2437 42.3212 38.605 43.1472 39.7844 42.5968C39.9658 43.239 40.5106 43.4224 41.055 43.5142C41.5086 43.6061 42.2345 43.6971 43.3232 43.6056C45.0471 43.4221 46.5884 42.9638 47.2235 42.5968C48.4937 41.9545 49.2209 41.1296 49.5838 40.5791L49.7646 40.3946C49.8554 40.6699 50.0369 40.8543 50.2182 41.0378C50.5811 41.4048 51.034 41.5879 51.3062 41.5879C51.5785 41.496 51.7613 41.4045 51.852 41.1292C52.3964 39.7531 53.6662 38.1017 54.6643 37.0008L54.7546 36.8162C55.0269 35.9905 55.7523 34.0643 56.2059 33.0551L56.4788 32.2291V32.0463C56.5697 31.771 56.5692 31.4041 56.5692 31.1289C56.5692 29.7527 56.3885 28.4687 55.9348 27.3677C55.7534 26.8173 55.5723 26.4496 55.3908 26.1744L55.2083 25.807C55.4806 25.3483 56.2974 24.7979 56.9325 24.4309L57.0229 24.3395L56.2077 23.5135L55.6619 23.8808C55.0268 24.2478 54.4835 24.4313 54.0299 24.3395C54.0299 24.2476 53.5762 23.9722 53.5762 23.9722H53.3937H53.213H53.0322H52.9401L53.1226 24.1567C53.4855 24.6154 53.6673 24.8896 53.9395 25.3483L54.0299 25.6243L54.2106 25.9916L54.3931 26.5417L54.4835 26.6331L54.5739 26.909L54.9372 28.1938C55.3001 29.57 55.3904 30.6702 55.4812 31.5876L55.3908 31.679L54.9372 32.9637C54.4835 34.2481 53.9384 35.8999 53.757 36.5421V36.6334C52.4868 37.9179 51.5806 39.3858 51.2176 40.3032C51.1268 40.3951 51.1255 40.3962 51.1255 40.4877C51.0346 40.4877 50.8546 40.3037 50.764 40.2118C50.4917 39.9365 50.3104 39.3865 50.3104 38.7443C50.3104 38.0103 50.6733 37.3678 51.2176 37.0008C51.3085 36.9089 51.308 36.7248 51.308 36.7248C51.1266 35.8074 51.3982 34.5241 51.9424 34.1571L52.0328 34.0639L51.9424 33.9725C50.3093 32.7799 49.5842 30.6694 49.4935 29.018V28.8353L49.3109 28.9267C49.2204 28.9267 49.1302 29.1112 49.1302 29.1112C49.1302 29.3865 49.0398 29.7534 49.0398 30.0287C49.0398 30.8544 49.2201 31.5883 49.3109 31.8635C49.4923 32.6892 49.946 33.5146 50.6719 34.2485V34.3399C50.3996 34.7069 50.22 35.5325 50.22 36.1747C50.22 36.3582 50.2195 36.5413 50.3104 36.7248C49.5845 37.2753 49.4034 38.1006 49.3127 38.6511V39.203L48.9494 39.6617V39.7531C48.2236 40.6705 47.7703 41.3116 46.5909 41.8621C45.3207 42.5043 42.961 42.963 41.3279 42.7795C40.7835 42.6876 40.7839 42.2294 40.7839 42.2294C40.7839 42.1375 40.8742 42.0472 40.8742 41.9553L41.055 41.8621C42.5066 41.9536 43.9587 41.7717 44.5938 41.4966L44.7763 41.2206L44.8667 41.1292H44.6841C43.4139 41.4045 40.8739 41.0363 39.6037 40.4859C38.0613 39.8437 37.6077 39.2933 36.4282 37.7336L36.0649 37.2749C36.0649 36.908 35.9752 36.4503 35.7938 36.0833C35.5215 35.7164 35.2484 35.5318 35.1576 35.4401C35.2485 35.1648 35.3402 34.7982 35.3402 34.4313C35.3402 33.8808 35.2487 33.4221 35.0673 33.0551C35.9745 32.4129 36.4282 31.6786 36.4282 30.8529C36.4282 30.4859 36.1571 29.9355 36.1571 29.9355L35.7938 29.7527L35.8842 30.0287C35.9751 31.3131 34.704 32.2305 33.7967 32.781L33.616 33.0551H33.7063C34.4322 33.5138 34.4318 34.8903 34.2504 35.716L34.3425 35.8074L34.7058 36.0833C35.3409 37.0008 35.249 38.3776 34.5233 39.1116C34.3419 39.295 34.343 39.2944 34.2521 39.2944C34.1613 39.2944 34.0696 39.0187 34.0696 38.927L33.7985 38.5597C33.2541 37.367 32.7094 36.3593 31.6207 34.9831L31.5285 34.89C31.3471 33.1468 31.0759 31.8632 30.8037 30.5788L30.6212 29.9355V29.7527C30.7121 28.3765 31.0763 27.367 31.6207 26.1744L31.8918 25.4415L32.1647 24.7982V24.7068C32.5276 24.3398 32.8912 23.9736 33.3448 23.6066L33.616 23.4221L33.2527 23.3307C33.2527 23.3307 32.7994 23.4229 32.255 23.698H32.1647C31.711 23.8814 31.2571 24.0643 30.8941 23.8808C30.8941 23.8808 30.0776 23.4224 29.9868 23.3307ZM36.6993 39.7531C36.8807 39.9365 37.5169 40.487 37.7891 40.6705C36.7911 40.8539 36.4271 40.2118 36.6993 39.7531ZM38.3331 41.036C38.7868 41.3114 39.5126 41.4958 40.1477 41.6793C38.7868 42.3215 37.9702 41.7701 38.3331 41.036Z" fill="#02041A" fill-opacity="0.8"/>
<path d="M36.0645 19.6605C36.1553 19.7524 36.3367 19.9358 36.3367 19.9358L37.0626 20.578L37.5162 21.0367C37.8791 21.312 37.9698 21.4955 37.9698 21.5872C37.9698 21.5872 37.879 21.6791 37.7885 21.6791L37.6976 21.7709L37.6067 22.0463H37.7881C38.8769 21.9544 39.7841 22.6885 40.4192 23.2389C41.5987 24.2481 42.4152 25.8995 42.5967 27.4591L43.4132 31.8628L43.7762 32.505L43.8667 32.6884L43.9576 32.9637C44.139 33.239 44.3205 33.4224 44.3205 33.5142L44.7742 33.7895L45.4093 34.4317L45.5906 34.6152L45.8629 34.8905C45.8629 34.9824 46.7702 35.0739 46.7702 35.0739C48.3126 35.2573 48.2218 36.0831 48.2218 36.0831C48.2218 36.0831 49.1292 34.7987 46.9517 34.2482C46.9517 34.2482 46.3166 34.1567 46.2258 34.1567L46.0444 33.7896C45.9539 33.7896 45.9539 33.6978 45.9539 33.6978L45.2281 33.0556L44.9558 32.8722C44.9558 32.7803 44.6835 32.1382 44.6835 32.1382L44.3206 31.2208C44.2297 30.9455 44.1392 30.4868 44.0483 29.8446L43.9575 29.4776L43.6852 27.6428L43.7761 27.2758C43.8666 26.5419 44.139 25.808 44.5926 24.9823C45.0463 24.0648 46.0443 23.4226 46.0443 23.4226C46.7701 22.9639 47.8588 22.6887 48.4032 22.597C48.6755 22.597 48.6755 22.4135 48.7661 22.3216V22.2297H48.6753C48.403 22.1378 48.0401 22.0463 47.9494 22.0463V21.9544C47.9494 21.9544 48.0403 21.8625 48.1308 21.6791L48.5844 21.3122L48.8567 21.0368C48.8567 21.0368 50.0362 19.9359 50.1269 19.7525L49.0382 19.4771C48.9473 19.569 47.8587 20.6698 47.8587 20.6698C47.1329 21.4038 46.2256 22.3212 45.8627 22.5047C44.8647 22.8717 43.8666 23.8808 43.413 24.7065L43.1407 25.4405C42.8685 24.6148 42.5056 23.8808 41.9613 23.3303C41.4169 22.6881 40.691 22.1377 39.8745 21.8625C39.4209 21.4038 37.8784 20.0276 37.0619 19.3854L36.0645 19.6605Z" fill="#02041A" fill-opacity="0.8"/>
<path d="M42.597 32.5963C42.6878 32.2294 42.5061 31.7706 42.5061 31.7706L42.4152 32.046C42.3244 32.3213 42.0523 32.5964 41.5987 32.7799L41.5078 32.8718L43.0502 35.0736L43.1411 35.1655L43.504 35.6242L44.1391 35.9912L44.3205 36.0831L45.0463 36.5418L45.6814 36.9088H45.7722L46.7703 37.0007C47.3146 37.0007 47.6775 37.276 47.859 37.3677C48.4034 37.8264 48.1313 38.4686 48.1313 38.4686C48.1313 38.4686 48.9478 37.7346 48.4035 36.909C48.2221 36.6336 47.9499 36.3585 47.1334 36.2667L46.1353 36.0833L45.591 35.7164L44.8652 35.3494L44.6837 35.2578L44.1394 34.9825L42.597 32.5963Z" fill="#02041A" fill-opacity="0.8"/>
<path d="M41.6904 37.2753L41.8718 37.3671L42.507 37.6424C42.9606 37.8259 43.5049 38.1012 43.7771 38.1929L44.503 38.6516C44.5938 38.6516 45.3195 38.5601 45.7732 38.6516C46.4083 38.6516 46.8619 38.9269 47.1341 39.202C47.4063 39.7525 47.0436 40.2113 47.0436 40.2113C47.1341 40.1194 47.7694 39.7525 47.7694 39.0186C47.6785 38.3764 47.1342 37.8259 44.9568 37.8259L44.4124 37.459L44.231 37.3671L43.3237 36.9084L42.5071 36.6331L42.3258 36.3578C42.0535 35.899 41.6906 35.4403 41.4185 35.0733L41.3276 34.9814C41.3276 34.9814 40.7832 34.2475 40.7832 34.1558C40.8741 33.7888 40.7832 33.3301 40.7832 33.3301C40.7832 33.3301 40.6923 33.5135 40.5109 33.6971C40.4201 33.8805 39.9666 34.1558 39.6944 34.2475L39.6035 34.3394L41.5088 36.9082L41.6904 37.2753Z" fill="#02041A" fill-opacity="0.8"/>
<path d="M39.2398 38.2844L39.6027 38.6513L40.3286 39.0183L40.9637 39.3853H41.0546L41.5082 39.6606L42.234 40.0276C42.3249 40.1194 42.4154 40.1195 42.4154 40.1195L43.4134 40.0276C44.0485 40.0276 44.6836 40.0276 45.1372 40.211C45.6816 40.4863 45.5001 40.9449 45.5001 40.9449C45.5001 40.9449 46.0445 40.578 45.9538 40.1192C45.8629 39.7522 45.4095 39.2935 43.9578 39.2018C43.5042 39.2018 42.7783 39.2018 42.7783 39.2018H42.6878L42.0527 38.8348L41.7804 38.6514C41.6895 38.6514 40.8731 38.1927 40.8731 38.1927L40.238 38.0093C40.238 37.9174 39.7844 37.2753 39.7844 37.2753L39.603 37L39.0586 36.2661L38.7863 35.9907C38.7863 35.8989 38.5141 35.5321 38.5141 35.5321C38.5141 35.5321 38.7863 35.0733 38.7863 34.6146C38.6955 34.7065 38.6955 34.7065 38.5141 34.89C38.3327 35.0734 37.6975 35.3486 37.2439 35.4404H37.0625L38.5141 37.367L39.2398 38.2844Z" fill="#02041A" fill-opacity="0.8"/>
</svg>
