<svg width="48" height="48" viewBox="0 0 48 48" fill="none" xmlns="http://www.w3.org/2000/svg">
<rect width="48" height="48" rx="8" fill="#686AEA" fill-opacity="0.1"/>
<path d="M14 15.993C14.0018 15.7304 14.1069 15.479 14.2925 15.2932C14.4781 15.1074 14.7294 15.0021 14.992 15H33.008C33.556 15 34 15.445 34 15.993V32.007C33.9982 32.2696 33.8931 32.521 33.7075 32.7068C33.5219 32.8926 33.2706 32.9979 33.008 33H14.992C14.7288 32.9997 14.4765 32.895 14.2905 32.7088C14.1045 32.5226 14 32.2702 14 32.007V15.993ZM18 27V29H30V27H18ZM18 19V25H24V19H18ZM26 19V21H30V19H26ZM26 23V25H30V23H26ZM20 21H22V23H20V21Z" fill="#7D71DE"/>
</svg>
