<svg width="58" height="58" viewBox="0 0 58 58" fill="none" xmlns="http://www.w3.org/2000/svg">
<rect width="58" height="58" rx="20" fill="#686AEA" fill-opacity="0.1"/>
<path d="M31.8305 19.5554L37.5 25.2221L37.5009 29.2454C36.5719 28.4743 35.4019 28.0532 34.1944 28.0554L33.9857 28.0592C32.8566 28.1047 31.7731 28.5171 30.8993 29.2337C30.0256 29.9503 29.4092 30.9322 29.1436 32.0306L29.1284 32.1005L29.1001 32.1194C28.6021 32.4531 28.1761 32.8832 27.8471 33.3843C27.5182 33.8854 27.293 34.4474 27.1849 35.037C27.0768 35.6266 27.0879 36.2319 27.2177 36.8171C27.3474 37.4024 27.5932 37.9556 27.9403 38.4443H21.4378C21.2083 38.4443 20.9867 38.3601 20.815 38.2076C20.6434 38.0551 20.5337 37.845 20.5066 37.617L20.5 37.5074V20.4923C20.5 20.022 20.8655 19.6168 21.3358 19.562L21.4463 19.5554H31.8305ZM34.1944 29.9443C35.0711 29.9443 35.9119 30.2926 36.5318 30.9125C37.1517 31.5324 37.5 32.3732 37.5 33.2499L37.4991 33.3471C38.0899 33.5136 38.6027 33.884 38.9464 34.3925C39.2902 34.9011 39.4427 35.515 39.377 36.1253C39.3112 36.7356 39.0314 37.3029 38.5872 37.7265C38.143 38.1502 37.5631 38.4028 36.9503 38.4396L36.7917 38.4443H31.5972L31.4386 38.4396C30.8259 38.4024 30.2463 38.1496 29.8023 37.7258C29.3584 37.302 29.0789 36.7347 29.0134 36.1244C28.9478 35.5142 29.1005 34.9005 29.4444 34.3921C29.7882 33.8837 30.301 33.5135 30.8917 33.3471L30.8889 33.2499C30.8889 32.3732 31.2372 31.5324 31.8571 30.9125C32.477 30.2926 33.3178 29.9443 34.1944 29.9443Z" fill="#7D71DE"/>
</svg>
