<svg width="48" height="48" viewBox="0 0 48 48" fill="none" xmlns="http://www.w3.org/2000/svg">
<rect width="48" height="48" rx="8" fill="#686AEA" fill-opacity="0.1"/>
<path d="M23 18V15C23 14.7348 23.1054 14.4804 23.2929 14.2929C23.4804 14.1054 23.7348 14 24 14H33C33.2652 14 33.5196 14.1054 33.7071 14.2929C33.8946 14.4804 34 14.7348 34 15V31C34 31.2652 33.8946 31.5196 33.7071 31.7071C33.5196 31.8946 33.2652 32 33 32H15C14.7348 32 14.4804 31.8946 14.2929 31.7071C14.1054 31.5196 14 31.2652 14 31V19C14 18.7348 14.1054 18.4804 14.2929 18.2929C14.4804 18.1054 14.7348 18 15 18H23ZM17 27V29H22V27H17ZM26 27V29H31V27H26ZM26 24V26H31V24H26ZM26 21V23H31V21H26ZM17 24V26H22V24H17Z" fill="#7D71DE"/>
</svg>
