<svg width="184" height="63" viewBox="0 0 184 63" fill="none" xmlns="http://www.w3.org/2000/svg">
<g clip-path="url(#clip0)">
<path d="M56.4453 23.7008C56.4453 22.4493 57.5167 21.425 58.826 21.425C60.1351 21.425 61.2064 22.449 61.2064 23.7008V31.1349C61.2064 33.1832 62.4762 34.6248 64.6979 34.6248C66.9196 34.6248 68.1893 33.1832 68.1893 31.1349V23.7008C68.1893 22.4493 69.2607 21.425 70.57 21.425C71.879 21.425 72.9504 22.449 72.9504 23.7008V30.7938C72.9504 35.3451 69.4986 38.6451 64.6982 38.6451C59.8974 38.6451 56.4459 35.3451 56.4459 30.7938V23.7008H56.4453Z" fill="#02041A" fill-opacity="0.8"/>
<path d="M35.747 31.4388H25.1941C25.4323 33.4116 26.7414 35.0431 29.4791 35.0431C30.987 35.0431 32.2166 34.6258 33.129 33.9428C33.6843 33.5258 34.1605 33.1839 34.8748 33.1839C36.0648 33.1839 36.7794 33.9047 36.7794 34.8527C36.7794 35.9148 35.906 36.6362 35.0731 37.1287C33.7638 37.9255 32.0182 38.6458 29.2805 38.6458C23.3292 38.6458 20.2344 34.7012 20.2344 29.9599C20.2344 24.9532 24.0042 21.274 29.201 21.274C34.1605 21.274 37.4533 24.9914 37.4533 29.9599C37.4533 30.6807 36.9774 31.4388 35.747 31.4388ZM29.2007 24.9154C27.0186 24.9154 25.511 26.2807 25.2728 28.2154H32.9301C32.5731 26.4703 31.3033 24.9154 29.2007 24.9154Z" fill="#02041A" fill-opacity="0.8"/>
<path d="M51.7603 26.2421C51.1255 26.2421 50.4114 25.825 49.6574 25.5218C48.5863 25.1042 47.7133 24.9149 46.7214 24.9149C45.2533 24.9149 44.2617 25.2562 44.2617 26.1664C44.2617 27.1146 45.0157 27.456 47.5548 28.1008C51.3238 29.0869 54.0222 30.1869 54.0222 33.5629C54.0222 36.5968 51.3637 38.6453 46.8804 38.6453C44.4207 38.6453 42.1195 38.0008 40.6119 36.9384C39.8582 36.408 39.5801 35.7248 39.5801 35.0042C39.5801 34.1317 40.3736 33.525 41.3259 33.525C42.1192 33.525 42.6352 33.8285 43.19 34.1693C44.0238 34.6626 45.3328 35.308 46.9992 35.308C48.5068 35.308 49.499 34.8144 49.499 33.9424C49.499 33.0322 48.5866 32.6528 46.2458 32.0458C41.2071 30.7562 39.7385 28.8597 39.7385 26.205C39.7385 23.436 42.1588 21.2736 46.8407 21.2736C48.3481 21.2736 49.8161 21.5394 51.1648 22.1461C52.5536 22.7528 53.5854 23.549 53.5854 24.5736C53.5854 25.5218 53.0693 26.2421 51.7603 26.2421Z" fill="#02041A" fill-opacity="0.8"/>
<path d="M85.2697 25.5976C82.6901 25.5976 81.2226 26.7731 81.2226 30.1109V36.2173C81.2226 37.4693 80.1515 38.4933 78.8422 38.4933C77.5329 38.4933 76.4219 37.4693 76.4219 36.2173V23.7387C76.4219 22.3733 77.4138 21.4251 78.8422 21.4251C80.1512 21.4251 81.2226 22.4872 81.2226 23.7387V24.156C81.6988 22.5248 82.8494 21.2731 84.9517 21.2731C86.6189 21.2731 87.4116 22.1835 87.4116 23.4731C87.4119 24.8008 86.6978 25.5976 85.2697 25.5976Z" fill="#02041A" fill-opacity="0.8"/>
<path d="M106.358 36.18C106.358 37.3938 105.603 38.4936 104.056 38.4936C102.469 38.4936 101.755 37.3938 101.755 36.18V36.1034C100.843 37.5835 99.0971 38.645 96.5973 38.645C91.2013 38.645 87.9883 34.7386 87.9883 29.9592C87.9883 24.7626 91.8362 21.2733 97.1928 21.2733C102.786 21.2733 106.358 24.7626 106.358 29.9592V36.18ZM97.1926 25.2181C94.4545 25.2181 92.6691 27.3042 92.6691 29.9592C92.6691 32.5008 94.2169 34.7005 97.1926 34.7005C100.049 34.7005 101.676 32.5008 101.676 29.9592C101.676 27.1904 100.009 25.2181 97.1926 25.2181Z" fill="#02041A" fill-opacity="0.8"/>
<path d="M117.993 21.2731C122.793 21.2731 126.404 24.5731 126.404 29.1248V36.2173C126.404 37.4693 125.333 38.4933 124.023 38.4933C122.714 38.4933 121.643 37.4693 121.643 36.2173V28.7835C121.643 26.7352 120.215 25.2939 117.993 25.2939C115.771 25.2939 114.343 26.7352 114.343 28.7835V36.2176C114.343 37.4696 113.272 38.4936 111.962 38.4936C110.653 38.4936 109.582 37.4696 109.582 36.2176V29.1251C109.582 24.5733 113.192 21.2731 117.993 21.2731Z" fill="#02041A" fill-opacity="0.8"/>
<path d="M144.32 23.5112C144.756 23.9664 144.995 24.4216 144.995 25.0661C144.995 26.0904 144.24 26.8109 143.129 26.8109C142.495 26.8109 142.098 26.6592 141.662 26.3557C141.027 25.9005 139.956 25.1421 138.249 25.1421C135.195 25.1421 133.608 27.4179 133.608 29.9589C133.608 32.5005 135.195 34.7763 138.249 34.7763C139.956 34.7763 141.027 34.0173 141.662 33.5624C142.098 33.2587 142.495 33.1069 143.129 33.1069C144.24 33.1069 144.995 33.8277 144.995 34.8515C144.995 35.4968 144.756 35.952 144.32 36.4072C143.17 37.6205 141.027 38.6448 138.21 38.6448C132.457 38.6448 128.848 34.8139 128.848 29.9589C128.848 25.104 132.457 21.2731 138.21 21.2731C141.027 21.2731 143.17 22.2976 144.32 23.5112Z" fill="#02041A" fill-opacity="0.8"/>
<path d="M162.019 31.4381H151.466C151.704 33.4109 153.013 35.0424 155.75 35.0424C157.258 35.0424 158.488 34.625 159.401 33.9421C159.956 33.525 160.432 33.1832 161.146 33.1832C162.337 33.1832 163.051 33.904 163.051 34.852C163.051 35.9141 162.178 36.6354 161.345 37.128C160.036 37.9248 158.29 38.645 155.552 38.645C149.601 38.645 146.506 34.7005 146.506 29.9592C146.506 24.9525 150.275 21.2733 155.472 21.2733C160.432 21.2733 163.725 24.9906 163.725 29.9592C163.725 30.68 163.249 31.4381 162.019 31.4381ZM155.473 24.9146C153.291 24.9146 151.784 26.28 151.545 28.2146H159.202C158.845 26.4696 157.575 24.9146 155.473 24.9146Z" fill="#02041A" fill-opacity="0.8"/>
</g>
<defs>
<clipPath id="clip0">
<rect width="144" height="18" fill="white" transform="translate(20 21)"/>
</clipPath>
</defs>
</svg>
