<svg width="48" height="48" viewBox="0 0 48 48" fill="none" xmlns="http://www.w3.org/2000/svg">
<path d="M24 33.9999C18.477 33.9999 14 29.5229 14 23.9999C14 18.4769 18.477 13.9999 24 13.9999C29.523 13.9999 34 18.4769 34 23.9999C34 29.5229 29.523 33.9999 24 33.9999ZM20.5 25.9999V27.9999H23V29.9999H25V27.9999H26C26.663 27.9999 27.2989 27.7365 27.7678 27.2676C28.2366 26.7988 28.5 26.1629 28.5 25.4999C28.5 24.8368 28.2366 24.201 27.7678 23.7321C27.2989 23.2633 26.663 22.9999 26 22.9999H22C21.8674 22.9999 21.7402 22.9472 21.6464 22.8534C21.5527 22.7597 21.5 22.6325 21.5 22.4999C21.5 22.3673 21.5527 22.2401 21.6464 22.1463C21.7402 22.0526 21.8674 21.9999 22 21.9999H27.5V19.9999H25V17.9999H23V19.9999H22C21.337 19.9999 20.7011 20.2633 20.2322 20.7321C19.7634 21.201 19.5 21.8368 19.5 22.4999C19.5 23.1629 19.7634 23.7988 20.2322 24.2676C20.7011 24.7365 21.337 24.9999 22 24.9999H26C26.1326 24.9999 26.2598 25.0526 26.3536 25.1463C26.4473 25.2401 26.5 25.3673 26.5 25.4999C26.5 25.6325 26.4473 25.7597 26.3536 25.8534C26.2598 25.9472 26.1326 25.9999 26 25.9999H20.5Z" fill="#686AEA"/>
<rect width="48" height="48" rx="8" fill="#686AEA" fill-opacity="0.1"/>
</svg>
