<svg width="58" height="58" viewBox="0 0 58 58" fill="none" xmlns="http://www.w3.org/2000/svg">
<rect width="58" height="58" rx="20" fill="#686AEA" fill-opacity="0.1"/>
<path d="M19 26H22V38H19C18.7348 38 18.4804 37.8946 18.2929 37.7071C18.1054 37.5196 18 37.2652 18 37V27C18 26.7348 18.1054 26.4804 18.2929 26.2929C18.4804 26.1053 18.7348 26 19 26ZM24.293 24.707L30.693 18.307C30.7781 18.2217 30.8911 18.17 31.0112 18.1613C31.1314 18.1527 31.2506 18.1877 31.347 18.26L32.2 18.9C32.4369 19.0778 32.6158 19.3218 32.7143 19.6012C32.8127 19.8806 32.8262 20.1829 32.753 20.47L31.6 25H38C38.5304 25 39.0391 25.2107 39.4142 25.5858C39.7893 25.9608 40 26.4696 40 27V29.104C40.0003 29.3654 39.9493 29.6242 39.85 29.866L36.755 37.381C36.6795 37.5642 36.5513 37.7209 36.3866 37.8311C36.2219 37.9413 36.0282 38.0001 35.83 38H25C24.7348 38 24.4804 37.8946 24.2929 37.7071C24.1054 37.5196 24 37.2652 24 37V25.414C24.0001 25.1488 24.1055 24.8945 24.293 24.707Z" fill="#7D71DE"/>
</svg>
