<svg width="184" height="63" viewBox="0 0 184 63" fill="none" xmlns="http://www.w3.org/2000/svg">
<path fill-rule="evenodd" clip-rule="evenodd" d="M129.909 16.0069C128.053 12.884 118.294 14.9207 106.129 20.4195C106.748 20.8949 107.366 21.4379 107.847 21.981C117.194 18.0436 124.41 16.8217 125.923 19.4012C127.641 22.3205 120.836 29.5844 109.909 36.7806L110.047 36.9162C123.38 28.3625 131.971 19.5372 129.909 16.0069Z" fill="#02041A" fill-opacity="0.9"/>
<path fill-rule="evenodd" clip-rule="evenodd" d="M72.314 49.9509C71.283 48.1177 73.4824 44.6555 77.8808 40.5145C77.5372 40.4464 77.1937 40.3105 76.85 40.1748C76.7813 40.1748 76.7813 40.1067 76.7813 40.1067C76.4378 39.9711 76.0941 39.8354 75.7503 39.6998C70.4584 44.5191 67.778 48.5926 69.0152 50.7656C70.5272 53.2772 77.0561 52.4625 85.7844 49.2719L85.7159 49.1362C78.7055 51.5121 73.5511 51.9872 72.314 49.9509Z" fill="#02041A" fill-opacity="0.9"/>
<path fill-rule="evenodd" clip-rule="evenodd" d="M66.8164 28.8377C66.8164 21.4379 76.7132 15.3959 88.8779 15.3959C101.111 15.3959 111.008 21.4379 111.008 28.8377C111.008 36.3053 101.111 42.3472 88.8779 42.3472C76.7132 42.347 66.8164 36.3053 66.8164 28.8377ZM79.3247 18.3831L83.5174 32.4357L87.9157 16.5498C84.8229 16.686 81.8677 17.2965 79.3247 18.3831ZM87.7095 24.2214L85.4414 32.4357H90.0462L87.7095 24.2214ZM94.2386 32.4357L98.2248 18.2472C95.6132 17.2288 92.6579 16.6177 89.5651 16.5498L94.2386 32.4357ZM79.2562 32.4357L76.9878 24.2214L74.7202 32.4357H79.2562ZM105.441 34.0649C106.541 32.5034 107.16 30.7385 107.16 28.8375C107.16 25.2395 104.891 22.0488 101.18 19.7404L105.441 34.0649ZM100.768 32.4357L98.4312 24.2214L96.1632 32.4357H100.768ZM101.249 34.0649H95.6819L95.2011 35.83L96.5067 40.0384C98.6372 39.4276 100.561 38.4772 102.142 37.3238L101.249 34.0649ZM81.3867 40.0386L79.737 34.0651H74.239L73.7577 35.7619C75.6822 37.6626 78.2937 39.1564 81.3866 40.1067V40.0386H81.3867ZM90.5275 34.0649H84.9604L83.1735 40.5818C84.9604 40.9895 86.885 41.1928 88.8779 41.1928C90.1151 41.1928 91.2833 41.1252 92.4517 40.9214L90.5275 34.0649ZM76.232 20.0123C72.7957 22.2523 70.6652 25.3755 70.6652 28.8377C70.6652 30.7386 71.2836 32.4357 72.3146 33.9971L76.232 20.0123Z" fill="#02041A" fill-opacity="0.8"/>
</svg>
