<svg width="184" height="63" viewBox="0 0 184 63" fill="none" xmlns="http://www.w3.org/2000/svg">
<path d="M57.0699 29.1184C57.0699 30.072 57.4933 30.3899 58.8747 30.3899C60.3638 30.3899 61.0025 29.9662 61.9606 27.953C62.28 27.953 62.28 27.953 62.28 27.953C61.9606 31.0256 61.9606 31.0256 61.9606 31.0256C52.9219 31.0256 52.9219 31.0256 52.9219 31.0256C52.9219 30.7078 52.9219 30.7078 52.9219 30.7078C54.3033 30.3899 54.411 30.072 54.411 28.8005C54.411 21.2783 54.411 21.2783 54.411 21.2783C54.411 20.2199 54.1993 19.9016 52.9219 19.5834C52.9219 19.2652 52.9219 19.2652 52.9219 19.2652C58.559 19.2652 58.559 19.2652 58.559 19.2652C58.559 19.5834 58.559 19.5834 58.559 19.5834C57.3892 19.9016 57.0699 20.2199 57.0699 21.171V29.1184Z" fill="#02041A" fill-opacity="0.8"/>
<path d="M66.1055 29.4362C66.1055 30.1778 66.5325 30.6016 67.3829 30.7078C67.3829 31.0256 67.3829 31.0256 67.3829 31.0256C62.5962 31.0256 62.5962 31.0256 62.5962 31.0256C62.5962 30.7078 62.5962 30.7078 62.5962 30.7078C63.5543 30.4957 63.8737 30.1778 63.8737 29.2246C63.8737 25.1972 63.8737 25.1972 63.8737 25.1972C63.8737 24.2461 63.5543 24.0316 62.4922 23.8206C62.4922 23.5024 62.4922 23.5024 62.4922 23.5024C65.7862 23.1841 65.7862 23.1841 65.7862 23.1841C66.1055 23.1841 66.1055 23.1841 66.1055 23.1841V29.4362ZM64.9358 18.4177C65.6821 18.4177 66.3172 19.0542 66.3172 19.7944C66.3172 20.5381 65.6821 21.0673 64.9358 21.0673C64.3007 21.0673 63.662 20.5381 63.662 19.7944C63.662 19.0542 64.3007 18.4177 64.9358 18.4177Z" fill="#02041A" fill-opacity="0.8"/>
<path d="M71.1028 25.0935C71.8456 24.3498 72.2726 24.1388 72.9113 24.1388C74.1851 24.1388 75.1431 25.5155 75.1431 27.3176C75.1431 29.7541 73.9734 30.8136 72.2726 30.8136C71.4222 30.8136 71.1028 30.3899 71.1028 29.5421V25.0935ZM71.1028 18.4177C70.7835 18.4177 70.7835 18.4177 70.7835 18.4177C67.7012 18.6287 67.7012 18.6287 67.7012 18.6287C67.7012 19.0542 67.7012 19.0542 67.7012 19.0542C68.3363 19.1579 68.7633 19.4761 68.7633 20.1126C68.7633 31.0256 68.7633 31.0256 68.7633 31.0256C69.933 31.2373 71.1028 31.3435 72.4843 31.3435C76.2053 31.3435 77.6944 29.4362 77.6944 27.1067C77.6944 24.879 76.0976 23.1841 73.9734 23.1841C72.9113 23.1841 71.9532 23.6096 71.1028 24.5643V18.4177Z" fill="#02041A" fill-opacity="0.8"/>
<path d="M80.9885 26.1519C81.0961 24.668 81.6272 23.7169 82.5853 23.7169C83.5397 23.7169 84.1784 24.668 84.2861 26.1519H80.9885ZM86.7297 26.5775C86.5179 24.4571 84.9248 23.1841 82.797 23.1841C80.3534 23.1841 78.5449 24.9863 78.5449 27.3176C78.5449 29.6483 80.3534 31.3435 82.6893 31.3435C84.4978 31.3435 86.0945 30.3899 86.7297 28.6946C86.4103 28.6946 86.4103 28.6946 86.4103 28.6946C85.6675 29.8599 84.8171 30.3899 83.6474 30.3899C82.2659 30.3899 80.8844 29.1183 80.9885 26.5775H86.7297Z" fill="#02041A" fill-opacity="0.8"/>
<path d="M94.0679 26.152C93.4292 25.4118 92.8982 25.0935 92.3671 25.0935C91.6208 25.0935 91.1974 25.4118 90.6663 26.152C90.6663 29.3304 90.6663 29.3304 90.6663 29.3304C90.6663 30.1778 90.878 30.4957 91.9401 30.7078C91.9401 31.0256 91.9401 31.0256 91.9401 31.0256C87.157 31.0256 87.157 31.0256 87.157 31.0256C87.157 30.7078 87.157 30.7078 87.157 30.7078C88.1151 30.4957 88.4308 30.1778 88.4308 29.3304C88.4308 25.3045 88.4308 25.3045 88.4308 25.3045C88.4308 24.3498 88.0074 23.9279 86.9453 23.8206C86.9453 23.5024 86.9453 23.5024 86.9453 23.5024C90.3469 23.1841 90.3469 23.1841 90.3469 23.1841C90.6663 23.1841 90.6663 23.1841 90.6663 23.1841C90.6663 25.6227 90.6663 25.6227 90.6663 25.6227C91.4091 23.9279 92.2595 23.1841 93.2175 23.1841C93.7486 23.1841 94.172 23.3987 94.599 23.8206L94.0679 26.152Z" fill="#02041A" fill-opacity="0.8"/>
<path d="M106.932 23.5024C106.932 23.8206 106.932 23.8207 106.932 23.8207C107.89 24.0316 108.101 24.5644 107.463 26.2593C106.401 28.6947 106.4 28.6947 106.4 28.6947C104.804 25.3046 104.804 25.3046 104.804 25.3046C104.273 24.3499 104.273 23.9279 105.123 23.8207C105.123 23.5024 105.123 23.5024 105.123 23.5024C100.763 23.5024 100.763 23.5024 100.763 23.5024C100.659 23.5024 100.659 23.5024 100.659 23.5024C98.4275 23.5024 98.4275 23.5024 98.4275 23.5024C98.4275 20.5382 98.4275 20.5382 98.4275 20.5382C98.0005 20.5382 98.0005 20.5382 98.0005 20.5382C96.9384 21.9148 95.7686 23.0805 94.8105 23.717C94.8105 24.0316 94.8105 24.0316 94.8105 24.0316C96.192 24.0316 96.192 24.0316 96.192 24.0316C96.192 28.9067 96.192 28.9067 96.192 28.9067C96.192 30.7078 97.2577 31.3436 98.7468 31.3436C99.913 31.3436 100.659 30.9195 101.19 29.9662C100.979 29.7542 100.979 29.7542 100.979 29.7542C100.552 30.1779 100.232 30.3899 99.8089 30.3899C98.7468 30.3899 98.4275 29.6483 98.4275 28.483C98.4275 24.0316 98.4275 24.0316 98.4275 24.0316C100.448 24.0316 100.448 24.0316 100.448 24.0316C101.617 24.0316 101.933 24.4571 102.36 25.5155C105.123 31.3436 105.123 31.3436 105.123 31.3436C104.273 33.8863 103.422 34.8395 102.041 34.8395C101.721 34.8395 101.51 34.8395 100.979 34.6279C100.552 36.9585 100.552 36.9585 100.552 36.9585C100.763 36.9585 100.979 36.9585 101.19 36.9585C102.784 36.9585 103.634 36.3227 104.38 34.5217C108.313 25.7265 108.313 25.7265 108.313 25.7265C108.844 24.3499 109.163 24.0316 110.121 23.8207C110.121 23.5024 110.121 23.5024 110.121 23.5024H106.932Z" fill="#02041A" fill-opacity="0.8"/>
<path d="M128.937 28.9067C129.153 29.9661 129.576 30.6016 130.746 30.8136C130.746 31.1315 130.746 31.1315 130.746 31.1315C124.897 31.1315 124.897 31.1315 124.897 31.1315C124.897 30.8136 124.897 30.8136 124.897 30.8136C126.175 30.4957 126.386 29.7541 126.175 28.1651C125.216 21.4892 125.216 21.4892 125.216 21.4892C121.391 31.1315 121.391 31.1315 121.391 31.1315C120.964 31.1315 120.964 31.1315 120.964 31.1315C117.136 21.4892 117.136 21.4892 117.136 21.4892C116.074 28.3767 116.074 28.3767 116.074 28.3767C115.862 29.7541 116.181 30.7077 117.455 30.8136C117.455 31.1315 117.455 31.1315 117.455 31.1315C113.203 31.1315 113.203 31.1315 113.203 31.1315C113.203 30.8136 113.203 30.8136 113.203 30.8136C114.481 30.7077 115.012 29.9661 115.331 28.1651C116.501 20.5381 116.501 20.5381 116.501 20.5381C115.97 20.0053 115.331 19.6907 114.8 19.6907C114.8 19.3724 114.8 19.3724 114.8 19.3724C119.052 19.3724 119.052 19.3724 119.052 19.3724C122.134 27.1067 122.134 27.1067 122.134 27.1067C125.216 19.3724 125.216 19.3724 125.216 19.3724C129.257 19.3724 129.257 19.3724 129.257 19.3724C129.257 19.6907 129.257 19.6907 129.257 19.6907C127.983 19.9016 127.768 20.5381 127.875 21.5965L128.937 28.9067Z" fill="#02041A" fill-opacity="0.8"/>
<path d="M131.705 25.1973C131.705 24.3499 131.386 24.0317 130.535 23.928C130.535 23.5025 130.535 23.5025 130.535 23.5025C133.617 23.1842 133.617 23.1842 133.617 23.1842C133.937 23.1842 133.937 23.1842 133.937 23.1842C133.937 28.8006 133.937 28.8006 133.937 28.8006C133.937 29.7542 134.575 30.1779 135.426 30.1779C136.169 30.1779 136.596 29.8601 137.231 28.8006C137.231 24.9864 137.231 24.9864 137.231 24.9864C137.231 24.3499 136.915 24.0317 136.065 23.928C136.065 23.5025 136.065 23.5025 136.065 23.5025C139.251 23.1842 139.251 23.1842 139.251 23.1842C139.57 23.1842 139.57 23.1842 139.57 23.1842C139.57 29.2247 139.57 29.2247 139.57 29.2247C139.57 30.2841 139.786 30.4958 140.74 30.8137C140.74 31.1316 140.74 31.1316 140.74 31.1316C137.231 31.4495 137.231 31.4495 137.231 31.4495C137.231 29.5422 137.231 29.5422 137.231 29.5422C136.38 30.8137 135.426 31.4495 134.256 31.4495C132.659 31.4495 131.705 30.6017 131.705 29.1185V25.1973Z" fill="#02041A" fill-opacity="0.8"/>
<path d="M142.547 24.1389C141.166 24.1389 141.166 24.1389 141.166 24.1389C141.166 23.717 141.166 23.717 141.166 23.717C142.12 23.1842 143.398 21.9149 144.46 20.6419C144.779 20.6419 144.779 20.6419 144.779 20.6419C144.779 23.5025 144.779 23.5025 144.779 23.5025C147.331 23.5025 147.331 23.5025 147.331 23.5025C147.331 24.1389 147.331 24.1389 147.331 24.1389C144.779 24.1389 144.779 24.1389 144.779 24.1389C144.779 28.4831 144.779 28.4831 144.779 28.4831C144.779 29.7542 145.099 30.4958 146.161 30.4958C146.588 30.4958 146.907 30.2841 147.331 29.8601C147.546 30.0721 147.546 30.0721 147.546 30.0721C147.011 31.0257 146.268 31.4495 145.099 31.4495C143.717 31.4495 142.547 30.7079 142.547 29.0126V24.1389Z" fill="#02041A" fill-opacity="0.8"/>
<path d="M148.821 25.1973C148.821 24.3499 148.501 24.0317 147.547 23.928C147.547 23.5025 147.547 23.5025 147.547 23.5025C150.733 23.1842 150.733 23.1842 150.733 23.1842C151.053 23.1842 151.053 23.1842 151.053 23.1842C151.053 28.8006 151.053 28.8006 151.053 28.8006C151.053 29.7542 151.691 30.1779 152.434 30.1779C153.288 30.1779 153.711 29.8601 154.35 28.8006C154.35 24.9864 154.35 24.9864 154.35 24.9864C154.35 24.3499 153.923 24.0317 153.18 23.928C153.18 23.5025 153.18 23.5025 153.18 23.5025C156.263 23.1842 156.263 23.1842 156.263 23.1842C156.69 23.1842 156.69 23.1842 156.69 23.1842C156.69 29.2247 156.69 29.2247 156.69 29.2247C156.69 30.2841 156.901 30.4958 157.859 30.8137C157.859 31.1316 157.859 31.1316 157.859 31.1316C154.35 31.4495 154.35 31.4495 154.35 31.4495C154.35 29.5422 154.35 29.5422 154.35 29.5422C153.5 30.8137 152.542 31.4495 151.268 31.4495C149.779 31.4495 148.821 30.6017 148.821 29.1185V25.1973Z" fill="#02041A" fill-opacity="0.8"/>
<path d="M163.065 29.8601C162.534 30.2841 162.11 30.6017 161.683 30.6017C161.044 30.6017 160.621 30.0721 160.621 29.2247C160.621 28.1652 161.152 27.7411 163.065 26.8922V29.8601ZM165.404 26.0448C165.404 23.928 163.703 23.1842 162.002 23.1842C160.194 23.1842 159.028 24.1389 158.601 25.8338C158.92 25.8338 158.92 25.8338 158.92 25.8338C159.451 24.9864 160.194 24.5644 161.152 24.5644C162.534 24.5644 163.065 25.1973 163.065 26.5776C161.26 27.2105 158.174 27.425 158.174 29.4363C158.174 30.4958 159.24 31.4495 160.513 31.4495C161.471 31.4495 162.11 31.2374 162.853 30.4958C163.065 30.39 163.065 30.39 163.065 30.39C163.492 31.1316 164.023 31.4495 164.873 31.4495C166.043 31.4495 166.681 30.9195 166.786 29.9663C166.47 29.9663 166.47 29.9663 166.47 29.9663C166.362 30.39 166.15 30.7079 165.831 30.7079C165.512 30.7079 165.404 30.39 165.404 29.6484V26.0448Z" fill="#02041A" fill-opacity="0.8"/>
<path d="M168.384 20.6418C168.384 19.5834 167.957 19.1579 166.895 19.0542C166.895 18.7359 166.895 18.7359 166.895 18.7359C170.296 18.525 170.296 18.525 170.296 18.525C170.616 18.525 170.616 18.525 170.616 18.525C170.616 29.2245 170.616 29.2245 170.616 29.2245C170.616 30.284 170.827 30.4957 171.997 30.8136C171.997 31.1315 171.997 31.1315 171.997 31.1315C166.895 31.1315 166.895 31.1315 166.895 31.1315C166.895 30.8136 166.895 30.8136 166.895 30.8136C168.064 30.6016 168.384 30.284 168.384 29.2245V20.6418Z" fill="#02041A" fill-opacity="0.8"/>
<path d="M50.2627 23.0805C50.1586 22.9732 49.9469 23.0805 49.9469 23.0805C46.3303 24.3499 46.3303 24.3499 46.3303 24.3499C46.1175 23.717 45.7989 23.0805 45.3734 22.444C46.5431 19.3725 46.5431 19.3725 46.5431 19.3725C46.5431 19.3725 46.6493 19.0543 46.5431 18.947C46.4365 18.8433 46.2241 19.0543 46.2241 19.0543C44.0977 20.7492 44.0977 20.7491 44.0977 20.7491C43.3535 19.9017 42.3966 19.2652 41.2272 18.736C40.9082 18.5251 40.483 18.4178 39.9512 18.3105C39.3136 15.7682 39.3136 15.7682 39.3136 15.7682C39.3136 15.7682 39.3136 15.5572 39.1008 15.5572C38.9946 15.5572 38.888 15.7682 38.888 15.7682C38.4628 17.9959 38.4628 17.9959 38.4628 17.9959C38.0376 17.8886 37.6124 17.8886 37.0806 17.8886C35.486 17.8886 34.1038 18.2068 32.9344 18.736C32.4027 18.947 31.9774 19.2652 31.446 19.5835C31.446 19.5835 31.3395 19.6907 31.2333 19.6907C30.808 18.6288 30.4891 17.6776 30.3828 17.4631C30.7018 17.2521 31.127 16.4047 31.2333 15.8755C31.446 15.1353 31.446 14.8171 31.2333 14.1806C31.127 13.8624 30.808 13.4368 30.808 13.1222C30.9143 13.0149 30.9143 12.8039 31.0205 12.6967C31.0205 12.4857 30.808 12.3784 30.5953 12.3784C30.3828 12.2747 30.2763 12.3784 30.0639 12.3784C30.0639 12.2747 29.9573 12.2747 30.0639 12.0602C30.1701 11.6383 30.9143 11.4237 31.6585 11.1091C32.5092 10.7908 32.9344 10.1543 32.9344 9.19963C33.0406 8.45946 32.6154 7.93026 32.0837 7.71572C31.9774 8.03395 31.5522 8.45946 31.3395 8.56316C31.0205 8.7777 30.5953 8.7777 30.3828 8.67043C30.3828 8.2485 30.1701 7.71571 29.7449 7.61202C29.6386 7.82299 29.2131 8.14123 28.4689 8.03395C27.8313 8.03395 27.7247 7.93026 26.7681 7.93026C25.3859 7.93026 24.2161 8.7777 24.1099 9.94338C24.0037 10.7908 24.3227 11.4237 24.5351 11.742C24.3227 11.8492 24.0037 12.2747 23.8975 12.3784C23.7909 12.2747 23.4719 12.1675 23.1533 12.3784C23.2595 12.4857 23.2595 12.6967 23.2595 12.9076C23.1533 13.1222 22.6215 14.0733 22.6215 14.9208C22.5153 16.2974 23.2595 17.1448 23.8975 17.4631C23.7909 17.6776 23.7909 17.8886 23.8975 18.0996C23.8975 18.2068 24.0037 18.3105 24.3227 18.3105C24.2161 18.5251 24.1099 18.736 24.2161 18.947C24.3227 19.2652 24.6417 19.6907 24.9607 19.6907C24.9607 19.9017 25.0669 20.5382 25.0669 20.7491C24.9607 20.9601 24.8541 21.0674 24.9607 21.3856C24.9607 21.8076 25.1731 22.1258 25.4921 22.1258C25.4921 22.3368 25.5983 22.5513 25.7049 22.655C25.8111 22.7623 25.9173 22.866 26.1301 22.9732C26.3425 23.1842 26.5553 23.2915 26.8743 23.2915C27.0867 23.2915 27.4057 23.2915 27.5123 23.2915C27.5123 23.2915 27.5123 24.1389 27.6185 24.9864C26.8743 26.9995 26.4491 29.3305 26.4491 31.7673C26.4491 36.3228 27.8313 40.349 30.2763 42.8917C30.2763 42.8917 30.3828 43.1034 30.808 43.3154C30.808 43.3154 31.5522 42.0439 32.7216 40.5607C33.0406 40.137 33.3596 39.8191 33.6786 39.3954C34.3166 38.9716 34.848 38.4417 35.3798 38.1238C36.8682 37.0647 38.6756 36.3228 40.2702 36.0052C38.4628 36.9585 37.3996 37.3822 35.5922 38.8658C34.529 39.8191 32.7216 41.5143 31.5522 43.845C31.765 43.9512 32.1902 44.1628 32.5092 44.269C32.8279 43.9512 34.1038 41.5143 36.124 39.6074C40.164 35.7932 44.9481 34.9458 47.4997 35.0516C47.6063 33.9921 47.7125 32.9326 47.7125 31.7673C47.7125 29.9662 47.4997 28.271 47.0745 26.6812C50.051 23.3987 50.051 23.3987 50.051 23.3987C50.051 23.3987 50.2627 23.1842 50.2627 23.0805Z" fill="#02041A" fill-opacity="0.8"/>
<path d="M27.9369 21.5966C27.8307 21.4893 27.2989 21.2783 26.9799 21.2783C26.5547 21.2783 26.2358 21.3856 25.9168 21.4893C25.8105 21.4893 25.8105 21.2783 25.8105 21.0674C25.9168 20.8564 26.0233 20.8564 26.0233 20.8564C25.9168 18.947 25.9168 18.947 25.9168 18.947C25.9168 18.947 26.4485 18.525 26.661 18.525C26.7675 18.525 26.8737 18.4178 26.8737 18.2068C27.0862 18.4178 27.4052 18.736 27.6179 19.0542C27.7241 19.2652 27.8307 19.4762 27.8307 19.7944C27.9369 20.1126 27.9369 20.5381 27.8307 20.8564C27.9369 20.9601 28.0431 21.0674 28.0431 21.171C28.1493 21.3856 28.0431 21.3856 27.9369 21.5966Z" fill="white"/>
<path d="M45.2676 27.4249C45.2676 27.1067 44.8424 26.0447 44.5234 25.8337C49.0934 23.8206 49.0934 23.8206 49.0934 23.8206L45.2676 27.4249Z" fill="white"/>
<path d="M32.9355 20.0054C36.7627 23.5024 36.7627 23.5024 36.7627 23.5024C36.3375 23.6097 35.8061 24.2462 35.6996 24.6681L32.9355 20.0054Z" fill="white"/>
<path d="M35.1661 26.7884C35.0599 26.9994 34.9533 27.1066 34.9533 27.4249C34.8471 27.6351 34.9533 27.741 34.9533 27.953C33.7839 27.2103 33.7839 27.2103 33.7839 27.2103C33.7839 26.8921 33.6777 26.4702 33.6777 26.2592V26.1519L35.1661 26.7884Z" fill="white"/>
<path d="M28.6811 27.2103C28.6811 26.9993 28.2559 20.0053 28.2559 19.7943C28.6811 19.4761 28.6811 19.4761 28.6811 19.4761C28.3622 19.4761 28.0432 19.3724 27.9369 19.1578C27.8307 17.041 27.8307 17.041 27.8307 17.041C27.5117 17.041 27.0862 16.83 26.98 16.7228C26.7675 16.5118 26.661 16.2973 26.8738 15.9826C26.98 16.0863 27.618 16.1936 28.0432 16.1936C28.1494 16.1936 28.3622 16.4045 28.4684 16.5118C28.5749 16.5118 28.8939 16.7228 29.0001 16.7228C29.1063 16.7228 29.1063 17.041 29.1063 17.041C29.2126 17.1447 32.7211 26.1519 32.7211 26.2592C32.8273 26.3629 33.0401 27.953 33.0401 28.0588C33.0401 28.165 33.5719 29.3303 33.6781 29.4362C33.1463 29.4362 32.4021 29.7541 31.7645 30.284C31.2327 30.9194 30.7013 32.1909 30.4885 32.8267C30.4885 32.5088 28.7874 27.3176 28.6811 27.2103Z" fill="white"/>
<path d="M33.1473 35.7932C32.9349 37.1705 32.6159 38.3358 32.0841 39.1833C31.7655 39.819 30.9147 40.8785 30.5957 41.3022C30.9147 40.6668 31.2337 38.9716 31.1275 37.7001C31.1275 36.8526 30.9147 34.9457 31.1275 33.78C31.3399 32.4027 31.7655 31.6611 32.6159 30.8136C33.0411 30.3899 33.9981 29.86 35.2737 30.2841C36.4434 32.2968 36.4434 32.2968 36.4434 32.2968C35.8054 32.191 35.0612 32.2968 34.5295 32.6147C33.5728 33.3563 33.2539 34.31 33.1473 35.7932Z" fill="white"/>
<path d="M33.2539 38.5479C33.4663 37.9121 33.8915 36.2169 33.8915 35.6873C34.1043 34.9457 34.2105 33.992 35.0613 33.2504C35.4865 32.9326 36.1245 32.8267 36.4435 32.9326C37.6129 35.3694 37.6129 35.3694 37.6129 35.3694C37.7191 35.6873 38.0381 35.7931 38.3571 35.6873C37.1877 36.111 34.3171 37.4884 33.2539 38.5479Z" fill="white"/>
<path d="M43.566 30.7078C43.3536 30.9195 43.4598 31.2373 43.566 31.4494C43.6726 31.6611 44.3102 32.8267 44.3102 32.8267C44.523 33.4621 44.6292 33.6742 44.842 33.9921C45.161 33.9921 45.5862 33.9921 46.0114 33.9921C45.5862 33.0384 44.523 31.2373 44.523 31.2373C44.523 29.7541 44.523 29.7541 44.523 29.7541C44.204 29.9662 43.7788 30.3899 43.566 30.7078Z" fill="white"/>
<path d="M38.3574 22.8659C38.8888 22.7622 39.952 22.8659 40.271 23.0804C39.2078 16.8301 39.2078 16.8301 39.2078 16.8301L38.3574 22.8659Z" fill="white"/>
<path d="M29.1063 17.041C29.1063 17.041 29.1063 16.7228 29.0001 16.7228C28.8939 16.7228 28.5749 16.5118 28.4684 16.5118C28.3622 16.4045 28.1494 16.1936 28.0432 16.1936C27.618 16.1936 26.98 16.0863 26.8738 15.9826C26.661 16.2973 26.7675 16.5118 26.98 16.7228C27.0862 16.83 27.5117 17.041 27.8307 17.041C27.9369 19.1578 27.9369 19.1578 27.9369 19.1578C28.0432 19.3724 28.3622 19.4761 28.6811 19.4761C28.2559 19.7943 28.2559 19.7943 28.2559 19.7943C28.2559 20.0053 28.6811 26.9993 28.6811 27.2103C28.7874 27.3176 30.4885 32.5088 30.4885 32.8267C30.7013 32.1909 31.2327 30.9194 31.7645 30.284C32.4021 29.7541 33.1463 29.4362 33.6781 29.4362C33.5719 29.3303 33.0401 28.165 33.0401 28.0588C33.0401 27.953 32.8273 26.3629 32.7211 26.2592C32.7211 26.1519 29.2126 17.1447 29.1063 17.041Z" fill="white"/>
<path d="M26.9813 15.3462C27.9383 15.3462 28.3635 15.7681 28.5763 15.9827C28.6825 15.6644 28.5763 15.3462 28.2573 15.1352C28.0445 14.9207 27.6193 14.7097 26.8751 14.7097C26.4499 14.7097 25.9181 14.817 25.7057 15.1352C25.3867 15.3462 25.3867 15.5572 25.3867 15.9827C25.4929 15.6644 26.1309 15.3462 26.9813 15.3462Z" fill="white"/>
<path d="M25.1738 10.2616C25.1738 10.5763 25.28 11.0018 25.3866 11.2127C25.4928 11.32 25.7056 11.6383 25.918 11.6383C26.1308 11.531 26.4498 11.109 26.9812 11.109C27.4064 11.109 27.6192 11.6382 27.9382 11.7419C28.1506 11.7419 28.2572 11.4237 28.5762 11.4237C28.7886 11.4237 28.7886 11.531 29.0014 11.6383C29.0014 11.4237 29.2138 11.32 29.5328 11.109C29.8518 10.7908 31.234 10.4726 31.7657 10.0471C32.0844 9.72883 32.0844 9.30689 32.0844 8.98865C31.872 9.30689 31.234 9.62513 30.7026 9.62513C30.3836 9.62513 29.6394 9.51786 29.4266 9.41416C29.5328 9.19962 29.6394 8.88138 29.5328 8.67042C29.3204 8.88138 28.4696 8.88138 28.1506 8.88138C27.832 8.88138 27.194 8.77769 26.7688 8.77769C25.7056 8.88138 25.1738 9.62513 25.1738 10.2616Z" fill="white"/>
<path d="M26.9812 13.544C29.3204 13.544 30.277 14.6024 30.3836 15.4498C30.4898 15.2389 30.4898 14.9206 30.3836 14.7097C30.3836 14.3914 30.0646 13.7549 30.0646 13.544C30.0646 13.333 30.0646 13.2257 30.1708 13.0148C29.958 13.0148 29.5328 13.2257 29.3204 13.0148C29.0014 12.9075 29.2138 12.3783 28.8952 12.2746C28.5762 12.1673 28.1506 12.5893 27.832 12.4856C27.513 12.4856 27.194 12.0601 26.9812 12.0601C26.556 12.0601 26.4498 12.4856 26.0246 12.4856C25.7056 12.5893 25.3866 12.3783 25.1738 12.3783C25.0676 12.4856 24.8548 12.5893 24.8548 12.8038C24.7486 12.9075 24.6424 13.0148 24.4296 13.122C24.2169 13.122 24.0044 13.0148 23.8982 13.0148C23.8982 13.122 24.0044 13.544 23.8982 13.7549C23.7916 14.0732 23.5792 14.3914 23.4727 14.7097C23.4727 15.1352 23.5792 15.2389 23.6854 15.4498C23.5792 14.2842 24.9614 13.4367 26.9812 13.544Z" fill="white"/>
<path d="M25.5988 17.8886C25.3864 17.8886 25.0674 18.2068 24.8546 18.4178C24.9612 18.6288 25.1736 19.0543 25.2798 19.158C25.3864 18.947 25.5988 18.6288 25.7054 18.5251C25.8116 18.4178 25.9178 18.4178 26.0243 18.3105C26.2368 18.2068 26.2368 18.2068 26.2368 18.0996C26.2368 17.8886 26.2368 17.8886 26.1306 17.7813C26.2368 17.7813 26.4496 17.7813 26.5558 17.6776C26.662 17.5703 26.662 17.4631 26.662 17.2521C26.662 17.1448 26.5558 17.1448 26.4496 17.1448C26.343 17.1448 25.9178 17.1448 25.8116 17.1448C25.8116 17.1448 26.0243 16.9339 26.1306 16.9339C26.2368 16.8302 26.2368 16.8302 26.343 16.7229C26.343 16.6156 26.343 16.5119 26.2368 16.2974C25.8116 16.2974 25.0674 16.7229 24.8546 16.8302C25.0674 17.2521 25.0674 17.2521 25.0674 17.2521C24.7484 17.2521 24.7484 17.2521 24.7484 17.2521C24.6422 17.4631 24.7484 17.7813 24.7484 17.8886C25.0674 17.8886 25.3864 17.8886 25.5988 17.8886Z" fill="white"/>
<path d="M44.3104 26.8921C44.2042 26.5774 43.46 25.8337 42.2906 24.879C41.3336 24.1388 39.9514 23.5023 38.8882 23.5023C36.9746 23.5023 36.1242 24.7753 36.0176 25.5155C35.9114 25.8337 35.9114 26.3629 36.0176 26.5774C35.6987 26.7884 35.5924 26.9994 35.5924 27.3176C35.4862 27.5286 35.5924 27.8472 35.8052 28.0589C35.6987 27.741 35.9114 27.4249 36.1242 27.2103C36.2304 26.9994 36.5494 26.8921 36.7618 26.7884C36.8684 27.2103 36.8684 27.2103 36.8684 27.2103C36.6556 27.4249 36.3366 27.741 36.2304 27.8472C36.3366 28.6946 36.3366 28.6946 36.3366 28.6946C36.9746 28.3767 36.9746 28.3767 36.9746 28.3767C37.0808 28.5888 37.0808 28.5888 37.0808 28.5888C36.8684 30.072 36.8684 30.072 36.8684 30.072C37.1874 30.072 37.1874 30.072 37.1874 30.072C37.9316 30.284 37.9316 30.284 37.9316 30.284C37.1874 30.8136 37.1874 30.8136 37.1874 30.8136C37.1874 31.0256 37.1874 31.0256 37.1874 31.0256C37.1874 31.0256 37.2936 30.9194 37.6126 30.9194C37.825 30.9194 38.3568 31.2373 38.3568 31.2373C38.3568 31.3435 38.3568 31.3435 38.3568 31.3435C38.144 31.3435 38.144 31.3435 38.144 31.3435C37.1874 31.3435 37.1874 31.3435 37.1874 31.3435C37.1874 31.5552 37.2936 31.661 37.3998 31.661C37.5064 31.661 37.7188 31.5552 37.825 31.5552C37.825 31.5552 38.0378 31.661 38.2506 31.661C38.0378 31.8731 38.0378 31.8731 38.0378 31.8731C38.0378 31.8731 37.9316 31.9789 37.7188 31.9789C37.6126 31.9789 37.5064 32.0851 37.5064 32.1909C37.5064 32.2968 37.6126 32.7205 37.6126 32.7205C37.7188 33.1446 38.2506 33.0384 38.2506 33.0384C38.5692 33.0384 39.6324 32.6147 39.6324 32.6147C38.6758 33.992 38.6758 33.992 38.6758 33.992C39.101 35.4752 39.101 35.4752 39.101 35.4752C39.739 35.2632 41.6526 34.5216 43.779 34.2041C43.5662 33.8862 43.5662 33.6741 43.2472 33.1446C42.1844 30.6015 42.1844 30.6015 42.1844 30.6015C42.2906 30.284 42.2906 30.284 42.2906 30.284C42.503 30.3899 42.9286 30.1778 43.141 29.9661C43.3538 29.7541 43.6728 29.4362 43.779 29.2245C43.6728 29.1183 43.46 29.1183 43.3538 29.2245C43.2472 29.3304 43.141 29.5421 42.9286 29.4362C42.7158 29.3304 42.822 29.1183 42.9286 28.9067C42.9286 28.6946 42.6096 28.6946 42.503 28.9067C42.2906 29.0125 41.9716 28.9067 41.7588 28.6946C41.4398 28.4829 40.2704 27.5286 39.9514 27.3176C39.3138 26.9994 38.463 26.8921 37.9316 26.9994C37.6126 26.9994 37.2936 27.2103 37.1874 27.1066C36.7618 26.4702 36.7618 26.4702 36.7618 26.4702C36.8684 26.3629 36.8684 26.3629 36.8684 26.3629C36.9746 26.4702 37.1874 26.5774 37.2936 26.5774C37.5064 26.4702 38.144 26.3629 38.782 26.3629C39.6324 26.2592 40.6956 26.5774 41.1212 26.7884C41.1212 27.4249 42.2906 28.0589 42.822 28.1651C43.2472 28.1651 43.46 28.0589 43.779 27.953C42.6096 26.9994 42.6096 26.9994 42.6096 26.9994C43.2472 26.2592 43.2472 26.2592 43.2472 26.2592C43.2472 26.2592 44.2042 27.1066 44.3104 27.3176C44.3104 27.2103 44.3104 26.9994 44.3104 26.8921ZM37.6126 28.0589C37.6126 28.0589 38.0378 27.741 38.5692 27.6351C39.2072 27.5286 39.9514 27.953 40.4832 28.2709C40.3766 28.4829 40.3766 28.4829 40.3766 28.4829C39.6324 28.6946 39.6324 28.6946 39.6324 28.6946C39.42 28.4829 39.2072 28.4829 38.8882 28.4829C38.5692 28.4829 38.3568 28.5888 38.3568 28.5888C38.5692 28.8005 38.5692 28.8005 38.5692 28.8005C38.2506 28.9067 38.2506 28.9067 38.2506 28.9067C38.0378 28.6946 37.825 28.4829 37.6126 28.3767V28.0589ZM36.4432 26.3629C36.2304 25.6227 36.7618 24.9863 37.0808 24.7753C37.3998 25.6227 37.3998 25.6227 37.3998 25.6227C37.0808 25.7264 36.6556 26.1519 36.4432 26.3629ZM39.9514 25.6227C39.5262 25.3045 38.3568 25.4118 37.9316 25.5155C37.6126 24.4571 37.6126 24.4571 37.6126 24.4571C37.825 24.3498 38.3568 24.1388 38.782 24.1388C39.2072 24.1388 39.739 24.2461 40.058 24.4571L39.9514 25.6227ZM42.1844 26.5774C41.6526 26.2592 40.8022 25.8337 40.4832 25.7264C40.9084 24.668 40.9084 24.668 40.9084 24.668C41.2274 24.879 42.503 25.6227 42.7158 25.8337L42.1844 26.5774Z" fill="white"/>
<path d="M41.9707 23.8206C42.3959 23.9279 43.3529 24.6681 43.5653 24.879C45.9045 20.0053 45.9045 20.0053 45.9045 20.0053L41.9707 23.8206Z" fill="white"/>
<path d="M174.232 28.4829C174.975 28.4829 175.614 29.0125 175.614 29.7541C175.614 30.6015 174.975 31.1315 174.232 31.1315C173.594 31.1315 172.955 30.6015 172.955 29.7541C172.955 29.0125 173.594 28.4829 174.232 28.4829ZM174.232 30.8136C174.868 30.8136 175.295 30.3899 175.295 29.7541C175.295 29.1183 174.868 28.6946 174.232 28.6946C173.698 28.6946 173.274 29.1183 173.274 29.7541C173.274 30.3899 173.698 30.8136 174.232 30.8136ZM173.805 29.1183C174.337 29.1183 174.337 29.1183 174.337 29.1183C174.656 29.1183 174.868 29.2245 174.868 29.5421C174.868 29.7541 174.764 29.86 174.548 29.86C174.868 30.6016 174.868 30.6016 174.868 30.6016C174.656 30.6016 174.656 30.6016 174.656 30.6016C174.232 29.9661 174.232 29.9661 174.232 29.9661C174.017 29.9661 174.017 29.9661 174.017 29.9661C174.017 30.6015 174.017 30.6016 174.017 30.6016C173.805 30.6016 173.805 30.6016 173.805 30.6016V29.1183ZM174.017 29.7541C174.337 29.7541 174.337 29.7541 174.337 29.7541C174.444 29.7541 174.656 29.6483 174.656 29.4362C174.656 29.3304 174.444 29.3304 174.337 29.3304C174.017 29.3304 174.017 29.3304 174.017 29.3304V29.7541Z" fill="#02041A" fill-opacity="0.8"/>
<path d="M53.1328 35.7931H99.2737V35.2634H53.1328V35.7931Z" fill="#02041A" fill-opacity="0.8"/>
<path d="M105.654 35.7931H172.209V35.2634H105.654V35.7931Z" fill="#02041A" fill-opacity="0.8"/>
<path d="M79.7148 46.1759H80.9907V39.819H79.7148V46.1759Z" fill="#02041A" fill-opacity="0.8"/>
<path d="M84.498 39.819H85.5602L88.3267 44.3748V39.819H89.3888V46.1759H88.3267L85.6678 41.6201H85.5602V46.1759H84.498V39.819Z" fill="#02041A" fill-opacity="0.8"/>
<path d="M93.2161 44.269C93.6395 44.9044 94.3859 45.2223 95.1286 45.2223C95.6597 45.2223 96.5101 45.0106 96.5101 44.3748C96.5101 43.9511 95.979 43.7391 95.1286 43.5274C94.4899 43.4212 94.4899 43.4212 94.4899 43.4212C93.4278 43.2095 92.4697 42.7858 92.4697 41.6201C92.4697 40.2427 93.8548 39.6073 95.021 39.6073C96.0867 39.6073 97.0411 40.0311 97.6798 40.8785C96.7254 41.6201 96.7254 41.6201 96.7254 41.6201C96.406 41.0905 95.7673 40.7727 95.021 40.7727C94.2782 40.7727 93.7471 40.9843 93.7471 41.4084C93.7471 41.938 94.3859 42.15 95.1286 42.2559C95.875 42.4679 95.875 42.4679 95.875 42.4679C96.8294 42.6796 97.7875 42.9975 97.7875 44.269C97.7875 45.858 96.2984 46.3879 94.9169 46.3879C93.8548 46.3879 92.7891 45.858 92.1504 45.0106L93.2161 44.269Z" fill="#02041A" fill-opacity="0.8"/>
<path d="M106.081 44.269C106.081 45.5401 105.019 46.3879 103.422 46.3879C101.933 46.3879 100.871 45.5401 100.871 44.269C100.871 39.819 100.871 39.819 100.871 39.819C102.041 39.819 102.041 39.819 102.041 39.819C102.041 43.9511 102.041 43.9511 102.041 43.9511C102.041 44.6927 102.36 45.2223 103.422 45.2223C104.488 45.2223 104.804 44.6927 104.804 43.9511C104.804 39.819 104.804 39.819 104.804 39.819C106.081 39.819 106.081 39.819 106.081 39.819V44.269Z" fill="#02041A" fill-opacity="0.8"/>
<path d="M109.482 39.819C112.141 39.819 112.141 39.819 112.141 39.819C113.523 39.819 114.373 40.5606 114.373 41.7263C114.373 43.2095 113.415 43.5274 113.099 43.6332C114.481 46.1759 114.481 46.1759 114.481 46.1759C113.099 46.1759 113.099 46.1759 113.099 46.1759C111.822 43.8449 111.822 43.8449 111.822 43.8449C110.652 43.8449 110.652 43.8449 110.652 43.8449C110.652 46.1759 110.652 46.1759 110.652 46.1759C109.482 46.1759 109.482 46.1759 109.482 46.1759V39.819ZM110.652 42.7858C112.034 42.7858 112.034 42.7858 112.034 42.7858C112.672 42.7858 113.099 42.4679 113.099 41.8321C113.099 41.1964 112.672 40.8785 111.822 40.8785C110.652 40.8785 110.652 40.8785 110.652 40.8785V42.7858Z" fill="#02041A" fill-opacity="0.8"/>
<path d="M119.052 39.819H120.434L122.561 46.1759H121.284L120.965 44.9044H118.521L118.094 46.1759H116.82L119.052 39.819ZM119.691 40.9843L118.84 43.8449H120.645L119.691 40.9843Z" fill="#02041A" fill-opacity="0.8"/>
<path d="M125.324 39.819H126.386L129.045 44.3748H129.153V39.819H130.215V46.1759H129.045L126.386 41.6201V46.1759H125.324V39.819Z" fill="#02041A" fill-opacity="0.8"/>
<path d="M137.764 41.938C137.657 41.1964 137.126 40.7727 136.379 40.7727C135.105 40.7727 134.574 41.8321 134.574 42.9975C134.574 44.0569 135.105 45.2223 136.379 45.2223C137.23 45.2223 137.657 44.6927 137.868 43.9511C139.038 44.4807 139.038 44.4807 139.038 44.4807C138.507 45.7522 137.657 46.3879 136.379 46.3879C134.255 46.3879 133.297 44.7985 133.297 42.9975C133.297 41.1964 134.467 39.6073 136.379 39.6073C137.657 39.6073 138.615 40.3489 138.934 41.6201L137.764 41.938Z" fill="#02041A" fill-opacity="0.8"/>
<path d="M141.59 39.819H146.161V40.8785H142.867V42.3617H145.842V43.4212H142.867V45.1164H146.377V46.1759H141.59V39.819Z" fill="#02041A" fill-opacity="0.8"/>
</svg>
