<svg width="76" height="34" viewBox="0 0 76 34" fill="none" xmlns="http://www.w3.org/2000/svg">
<path d="M38.681 5.96161C37.5036 5.96161 36.5541 6.2859 35.8325 6.93444C35.1108 7.58301 34.75 8.46046 34.75 9.56681V10.7686H43.5236V25.075H40.3617V13.2007H34.75V25.075H31.5881V13.2007H29.1953V10.7686H31.5881V9.39514C31.5881 7.56396 32.2053 6.09514 33.4397 4.98878C34.693 3.8824 36.3262 3.32922 38.3392 3.32922C40.1623 3.32922 41.9094 3.7298 43.5806 4.53096V7.4209C41.8524 6.44805 40.2193 5.96161 38.681 5.96161Z" fill="black"/>
<path d="M47.2344 25.075V22.786L55.3528 13.4009H47.3483V10.7686H59.4547V13.0004L51.3078 22.4426H59.5971V25.075H47.2344Z" fill="black"/>
<path d="M74.543 18.0363C74.543 18.4368 74.5238 18.7325 74.4855 18.9233H64.4018C64.6866 21.384 65.9684 22.6143 68.2471 22.6143C69.0448 22.6143 69.7096 22.4522 70.2416 22.1279C70.773 21.8037 71.3235 21.1932 71.8938 20.2967L74.087 21.8418C72.8524 24.188 70.8681 25.3611 68.1334 25.3611C66.0252 25.3611 64.3545 24.6745 63.1199 23.3011C61.9046 21.9276 61.2969 20.1441 61.2969 17.9504C61.2969 15.7568 61.9141 13.9637 63.1484 12.5712C64.3826 11.1787 66.0444 10.4824 68.1334 10.4824C70.1465 10.4824 71.7131 11.1787 72.8333 12.5712C73.9733 13.9446 74.543 15.7663 74.543 18.0363ZM68.1903 13.2007C66.1204 13.2007 64.8859 14.2975 64.4873 16.4912H71.6939C71.3906 14.2975 70.2225 13.2007 68.1903 13.2007Z" fill="black"/>
<path d="M21.9752 10.9205V27.8822H0V6.97058H7.17089V0H21.9752V4.41469H11.3346V16.2646L7.40221 20.2146V10.9205H3.93241V23.9323H18.2742V11.1529V10.6882H21.9752V10.9205Z" fill="black"/>
<path d="M14.3398 6.73828H22.2046L18.2722 10.6882H14.3398V6.73828Z" fill="#3A0DEF"/>
</svg>
