<svg width="184" height="63" viewBox="0 0 184 63" fill="none" xmlns="http://www.w3.org/2000/svg">
<path d="M130.187 32.9956C130.187 32.6959 130.251 32.3927 130.379 32.0827C130.505 31.7739 130.692 31.4902 130.937 31.2307C131.181 30.9712 131.491 30.7577 131.863 30.5877C132.234 30.4178 132.665 30.3328 133.156 30.3328C133.644 30.3328 134.066 30.4178 134.419 30.5877C134.772 30.7577 135.065 30.9712 135.301 31.2307C135.535 31.4902 135.711 31.7739 135.828 32.0827C135.947 32.3927 136.004 32.6959 136.004 32.9956H130.187ZM137.975 37.2429C137.66 37.4829 137.16 37.7665 136.476 38.096C135.789 38.4244 134.899 38.5898 133.802 38.5898C132.684 38.5898 131.808 38.305 131.172 37.7366C130.536 37.1682 130.207 36.5057 130.187 35.7479H140V35.0302C140 33.8533 139.855 32.7705 139.56 31.7842C139.267 30.7967 138.831 29.9493 138.253 29.2409C137.676 28.5335 136.964 27.9801 136.123 27.5817C135.28 27.1821 134.301 26.9834 133.185 26.9834C132.069 26.9834 131.069 27.1878 130.187 27.5966C129.307 28.0054 128.562 28.5485 127.954 29.2259C127.348 29.9045 126.883 30.6968 126.559 31.6051C126.237 32.5122 126.075 33.4549 126.075 34.4309C126.075 35.5481 126.246 36.57 126.589 37.4978C126.932 38.4244 127.431 39.2178 128.088 39.8758C128.743 40.5337 129.542 41.0481 130.482 41.4167C131.422 41.7853 132.479 41.9701 133.655 41.9701C134.536 41.9701 135.319 41.884 136.004 41.7152C136.691 41.5453 137.283 41.3512 137.783 41.1319C138.282 40.9126 138.688 40.6887 139.001 40.4591C139.315 40.2294 139.55 40.0652 139.707 39.9653L137.975 37.2429ZM91.1457 37.7515C90.8717 37.9513 90.5785 38.1259 90.265 38.2751C89.9514 38.4244 89.5793 38.5002 89.1485 38.5002C88.5801 38.5002 88.1639 38.3153 87.9001 37.9456C87.635 37.577 87.5031 37.0534 87.5031 36.376V30.8415H91.0589V27.4611H87.5031V23.7018H83.2729V27.4611H81.0918V30.8415H83.2729V36.136C83.2729 37.0144 83.3608 37.8113 83.5368 38.53C83.7138 39.2477 84.007 39.8608 84.4187 40.3695C84.8292 40.8782 85.3682 41.2766 86.0336 41.566C86.7001 41.8542 87.5234 42 88.5023 42C90.0687 42 91.519 41.4615 92.8509 40.3844L91.1457 37.7515ZM127.773 22.4663C127.146 21.9278 126.451 21.5489 125.688 21.3295C124.923 21.1102 124.169 21 123.424 21C122.721 21 122.029 21.1148 121.354 21.3445C120.678 21.5741 120.076 21.9232 119.546 22.3917C119.017 22.8601 118.592 23.4526 118.269 24.1714C117.946 24.8891 117.783 25.7468 117.783 26.7435V27.4611H115.551V30.8415H117.783V41.4913H121.984V30.8415H125.247V27.4611H121.984V26.6837C121.984 25.9856 122.161 25.4471 122.514 25.0682C122.866 24.6904 123.336 24.4998 123.924 24.4998C124.296 24.4998 124.658 24.5595 125.011 24.6789C125.364 24.7995 125.688 24.9694 125.981 25.1876L127.773 22.4663ZM109.18 41.4913H113.41V27.4611H111.294H109.18V41.4913ZM94.4343 41.4913H107.324V37.7963H98.8708V21.5385H94.4343V41.4913ZM70.2665 32.9956C70.2665 32.6959 70.3297 32.3927 70.4571 32.0827C70.5845 31.7739 70.7706 31.4902 71.0153 31.2307C71.2601 30.9712 71.5691 30.7577 71.9412 30.5877C72.3134 30.4178 72.7442 30.3328 73.2336 30.3328C73.7231 30.3328 74.1448 30.4178 74.4967 30.5877C74.8497 30.7577 75.144 30.9712 75.3786 31.2307C75.6132 31.4902 75.7902 31.7739 75.9075 32.0827C76.0248 32.3927 76.0835 32.6959 76.0835 32.9956H70.2665ZM78.0525 37.2429C77.739 37.4829 77.2394 37.7665 76.5537 38.096C75.8681 38.4244 74.9771 38.5898 73.8798 38.5898C72.7633 38.5898 71.8871 38.305 71.251 37.7366C70.6139 37.1682 70.2857 36.5057 70.2665 35.7479H80.0791V35.0302C80.0791 33.8533 79.9325 32.7705 79.6393 31.7842C79.3449 30.7967 78.9085 29.9493 78.3311 29.2409C77.7537 28.5335 77.0432 27.9801 76.2007 27.5817C75.3594 27.1821 74.3794 26.9834 73.2629 26.9834C72.1465 26.9834 71.1484 27.1878 70.2665 27.5966C69.3857 28.0054 68.6403 28.5485 68.0336 29.2259C67.4257 29.9045 66.9611 30.6968 66.6385 31.6051C66.3149 32.5122 66.1536 33.4549 66.1536 34.4309C66.1536 35.5481 66.3239 36.57 66.6678 37.4978C67.0096 38.4244 67.5091 39.2178 68.1655 39.8758C68.8219 40.5337 69.6203 41.0481 70.5597 41.4167C71.5003 41.7853 72.5581 41.9701 73.7332 41.9701C74.6151 41.9701 75.3978 41.884 76.0835 41.7152C76.7691 41.5453 77.3623 41.3512 77.8619 41.1319C78.3604 40.9126 78.7675 40.6887 79.0799 40.4591C79.3934 40.2294 79.6291 40.0652 79.7859 39.9653L78.0525 37.2429ZM44 41.4913H48.2302L48.7298 28.5381L53.0198 36.2267H55.3114L59.3656 28.4486L59.9239 41.4913H64.3605L63.4492 21.5385H59.2179L54.2242 30.9012L49.1121 21.5385H44.9101L44 41.4913ZM111.294 25.857C109.988 25.857 108.91 24.7593 108.91 23.4285C108.91 22.0977 109.988 21 111.294 21C112.634 21 113.679 22.0644 113.679 23.4285C113.679 24.7593 112.601 25.857 111.294 25.857Z" fill="#02041A" fill-opacity="0.8"/>
</svg>
