<svg width="184" height="63" viewBox="0 0 184 63" fill="none" xmlns="http://www.w3.org/2000/svg">
<path d="M69.4857 19.7989C70.7228 19.7989 71.7448 20.7544 71.7448 21.9339C71.7448 23.1133 70.7228 24.0688 69.4857 24.0688C68.2508 24.0688 67.2288 23.1133 67.2266 21.9339C67.2266 20.7544 68.2508 19.7989 69.4857 19.7989Z" fill="#02041A" fill-opacity="0.8"/>
<path d="M127.234 19.7994C128.471 19.7994 129.493 20.7549 129.493 21.9344C129.493 23.1138 128.471 24.0693 127.234 24.0693C126.003 24.0693 124.975 23.1138 124.975 21.9344C124.975 20.7549 126.003 19.7994 127.234 19.7994Z" fill="#02041A" fill-opacity="0.8"/>
<path d="M50.3162 33.1865H49.977C49.3873 33.1865 47.9617 33.2575 46.8865 33.5523C46.1438 33.7563 45.5252 34.244 45.5252 34.9224C45.5252 35.8802 46.483 36.2992 47.3454 36.2992C49.2055 36.2992 50.3162 35.122 50.3162 33.5922V33.1865ZM53.9277 30.9607V38.9552H50.427V37.6117C49.5114 38.596 48.3874 39.219 46.6337 39.2678C43.8758 39.3476 41.7031 37.6671 41.7031 35.153C41.7031 31.2843 45.8245 30.433 49.8617 30.4352H50.3162C50.3162 29.3644 49.8418 28.3756 47.7112 28.3756C46.2635 28.3756 45.0353 28.839 44.1618 29.646L42.0445 27.5309C43.5033 26.0965 45.5518 25.3627 47.8132 25.3627C50.0524 25.3627 51.2828 25.6797 52.5354 26.8038C53.7171 27.8635 53.9277 29.8544 53.9277 30.9607Z" fill="#02041A" fill-opacity="0.8"/>
<path d="M61.6412 25.679V21.4933H57.8701V25.679H55.2695V28.8361H57.8701V34.4717C57.8701 36.3584 58.1893 37.4802 58.9409 38.2317C59.6503 38.9367 60.7278 39.2693 62.3263 39.2693C63.3394 39.2693 64.3615 39.0675 65.1552 38.7261V35.7398C64.6785 35.8994 63.9824 36.0059 63.1133 36.0059C61.9427 36.0059 61.6412 35.3651 61.6412 34.2877V28.8361H65.1552V25.679H61.6412Z" fill="#02041A" fill-opacity="0.8"/>
<path d="M157.39 30.8287C157.224 29.3832 156.428 28.3234 154.543 28.3611C152.943 28.3966 151.852 29.4785 151.681 30.8287H157.39ZM161.403 32.5535V33.5556H151.674C151.739 34.9124 153.271 36.0785 155.075 36.145C156.762 36.2138 157.685 35.5487 158.554 34.6042L160.953 36.3579C159.496 38.2002 157.696 39.2688 155.144 39.2688C151.1 39.2688 147.797 36.7569 147.797 32.3185C147.797 28.7691 150.007 25.3637 154.672 25.3637C159.474 25.3637 161.403 29.0905 161.403 32.5535Z" fill="#02041A" fill-opacity="0.8"/>
<path d="M35.2754 19.689V32.7693L27.1058 19.689H22V38.957H26.1524V25.4354L34.5483 38.957H39.4257V19.689H35.2754Z" fill="#02041A" fill-opacity="0.8"/>
<path d="M120.009 25.6797L117.87 33.9269L115.728 25.6797H111.771L109.705 33.907L107.563 25.6797H103.391L107.643 38.9574H111.429L113.706 30.6103L116.267 38.9574H119.774L124.011 25.6797H120.009Z" fill="#02041A" fill-opacity="0.8"/>
<path d="M71.3955 25.6818H67.5801V38.9573H71.3955V25.6818Z" fill="#02041A" fill-opacity="0.8"/>
<path d="M129.148 25.6818H125.328V38.9573H129.148V25.6818Z" fill="#02041A" fill-opacity="0.8"/>
<path d="M101.038 26.5817C100.236 25.7481 99.2379 25.3557 97.7592 25.3668C96.3004 25.3756 94.6088 26.0851 93.8085 27.1249V25.6838H90.1504V38.957H93.9681V31.7429C93.9681 30.8051 94.2252 30.1112 94.6687 29.6212C95.0544 29.1867 95.6175 28.9118 96.3314 28.8697C97.196 28.8187 97.655 29.1933 97.9831 29.6101C98.3932 30.1267 98.5041 31.029 98.5041 32.2439V38.957H102.32V30.6676C102.32 29.0448 102.111 27.6991 101.038 26.5817Z" fill="#02041A" fill-opacity="0.8"/>
<path d="M141.902 32.3197C141.902 30.5328 140.745 28.7282 138.526 28.7282C136.315 28.7282 135.158 30.5328 135.158 32.3197C135.158 34.0977 136.315 35.9068 138.526 35.9068C140.747 35.9068 141.902 34.0977 141.902 32.3197ZM145.616 19.6894V38.9574H142.017V37.4809C141.177 38.4497 139.803 39.27 137.896 39.27C136.063 39.27 134.471 38.6537 133.296 37.4765C132.034 36.2172 131.336 34.3815 131.336 32.3197C131.336 28.287 134.038 25.365 137.772 25.365C139.401 25.365 140.756 25.866 141.794 26.8459V19.6894H145.616Z" fill="#02041A" fill-opacity="0.8"/>
<path d="M80.7788 28.7282C78.564 28.7282 77.4112 30.5328 77.4112 32.3153C77.4112 34.1 78.564 35.9046 80.7788 35.9046C82.9869 35.9046 84.1464 34.1 84.1464 32.3153C84.1464 30.5328 82.9869 28.7282 80.7788 28.7282ZM87.9619 32.3153C87.9619 36.3458 84.9468 39.27 80.7788 39.27C76.613 39.27 73.5957 36.3458 73.5957 32.3153C73.5957 28.2847 76.613 25.3627 80.7788 25.3627C84.9468 25.3627 87.9619 28.2847 87.9619 32.3153Z" fill="#02041A" fill-opacity="0.8"/>
</svg>
