<svg width="184" height="63" viewBox="0 0 184 63" fill="none" xmlns="http://www.w3.org/2000/svg">
<path d="M89.5867 33.826C91.3871 33.6421 92.6768 32.8093 93.4043 31.3312C93.9995 30.1271 94.9181 28.1767 94.9255 28.1551C95.8367 26.3093 95.5574 25.1808 95.1606 24.5499C94.5654 23.6162 93.4006 23.2845 92.5151 23.2845H83.4946L74.1582 42.7523H78.8466L82.4217 35.1058H84.935C85.1447 35.1181 85.3491 35.176 85.5333 35.2751C85.7176 35.3742 85.8771 35.5121 86.0005 35.679C86.3018 36.1693 86.221 36.9192 85.747 37.907C84.6153 40.29 83.7151 42.7595 83.7151 42.7595H88.4697C88.6013 42.1158 88.7945 41.4857 89.0465 40.8776C89.414 40.0268 90.5163 37.3374 90.5163 37.3121C91.4238 35.131 90.2995 34.2586 89.5867 33.826ZM89.0906 30.6138C88.6938 31.4358 88.0839 31.8539 87.2718 31.8539H84.0017L86.4819 26.5544H90.0607C90.1555 26.5587 90.2481 26.5836 90.332 26.6272C90.4158 26.6709 90.4888 26.7322 90.5457 26.8068C90.689 27.0375 90.6375 27.4232 90.3987 27.9244L89.5793 29.6116L89.0906 30.6138Z" fill="#02041A" fill-opacity="0.8"/>
<path d="M39.543 33.8259C41.3434 33.6384 42.6258 32.8056 43.3606 31.3275C43.9559 30.1234 44.8744 28.173 44.8855 28.1514C45.7967 26.3056 45.5174 25.1772 45.1206 24.5463C44.5254 23.627 43.3606 23.2953 42.4714 23.2953H33.44L24.1035 42.763H28.803L32.3781 35.1165H34.895C35.1047 35.1289 35.3091 35.1867 35.4933 35.2858C35.6776 35.3849 35.8371 35.5229 35.9605 35.6897C36.2655 36.18 36.181 36.9299 35.707 37.9177C34.5753 40.3007 33.6751 42.7702 33.6751 42.7702H38.4297C38.5596 42.1265 38.7515 41.4964 39.0029 40.8883C39.3703 40.0375 40.4726 37.3481 40.4726 37.3229C41.3838 35.1309 40.2558 34.2585 39.543 33.8259ZM39.047 30.6101C38.6501 31.4357 38.0402 31.8358 37.2319 31.8358H33.9617L36.5117 26.5363H40.017C40.1118 26.5406 40.2045 26.5655 40.2883 26.6091C40.3722 26.6528 40.4452 26.7141 40.502 26.7887C40.6453 27.0194 40.5939 27.4051 40.355 27.9063L39.5357 29.5935L39.047 30.6101Z" fill="#02041A" fill-opacity="0.8"/>
<path d="M61.5591 28.137C63.2016 24.6833 61.3424 23.1836 58.9761 23.1836H53.2809C50.8852 23.1836 49.1951 24.294 48.1075 26.576C47.5232 27.8018 46.5495 29.8206 45.4215 32.1243L43.0406 37.0489C40.6486 41.988 44.2274 42.8171 45.98 42.8171H49.5772C53.1817 42.8532 54.9564 41.8546 56.349 39.0065C57.2822 37.103 58.5756 34.3847 59.9498 31.5042L61.5591 28.137ZM56.8817 27.5891L52.1051 37.5717C51.4401 38.9488 51.0028 39.1832 49.9703 39.1832H47.9054C47.5379 39.1832 46.8031 39.0858 47.3542 37.907C48.1552 36.2125 51.5135 29.1104 52.2006 27.6828C52.6673 26.7094 53.1523 26.5147 53.7843 26.5147H56.3563C56.845 26.4931 57.2822 26.7563 56.8817 27.5891Z" fill="#02041A" fill-opacity="0.8"/>
<path d="M69.3695 31.9549L67.8116 35.1995H70.2807L68.8918 38.1449C68.4877 38.9993 68.2121 39.1724 67.2604 39.1724H64.806C64.0711 39.1724 63.8139 38.8119 64.2548 37.8962C64.8133 36.7353 69.2225 27.7008 69.2225 27.7008C69.7222 26.6734 70.0199 26.5184 70.7915 26.5184H73.3267C73.9403 26.5184 74.271 26.7959 73.8595 27.5999C73.7677 27.7765 72.7572 29.9432 72.7572 29.9432L77.2289 29.9757L78.2466 27.8306C79.7347 24.6942 78.4046 23.2269 75.3256 23.1836H70.4681C69.3111 23.154 68.1709 23.4601 67.1905 24.0636C66.21 24.667 65.4329 25.541 64.9566 26.576C64.0711 28.4255 59.8934 37.0489 59.8934 37.0489C58.3649 40.2034 59.2504 42.8172 63.4318 42.8172H67.1649C70.1484 42.846 71.6145 42.3881 72.9777 39.4608L76.4573 31.9801L69.3695 31.9549Z" fill="#02041A" fill-opacity="0.8"/>
<path d="M136.771 23.234L127.424 42.7306H132.241L141.647 23.234H136.771Z" fill="#02041A" fill-opacity="0.8"/>
<path d="M142.681 40.4125L148.199 23.2377H143.147L138.518 42.7306H145.036L158.657 23.2377H153.59L142.681 40.4125Z" fill="#02041A" fill-opacity="0.8"/>
<path d="M116.277 35.9673L115.872 28.7571C115.825 27.8882 116.041 26.7094 117.662 26.7094H120.917L122.589 23.234H117.041C112.632 23.234 111.162 25.8694 111.32 28.9662C111.423 30.8589 111.687 37.0164 111.687 37.0164C111.753 38.5017 111.173 39.1795 109.758 39.1795H106.047L104.383 42.7161H110.298C114.223 42.7378 116.534 40.225 116.277 35.9673Z" fill="#02041A" fill-opacity="0.8"/>
<path d="M126.964 28.7643C126.917 27.8954 127.133 26.7166 128.754 26.7166H132.009L133.681 23.2412H128.133C124.488 23.2412 122.202 25.1952 122.412 28.9734C122.518 30.8661 122.779 37.0236 122.779 37.0236C122.849 38.5089 122.269 39.1867 120.85 39.1867H117.235L115.57 42.7233H121.39C125.704 42.7233 127.593 39.695 127.365 35.9529L126.964 28.7643Z" fill="#02041A" fill-opacity="0.8"/>
<path d="M99.7354 34.017H105.765L107.312 30.7724H101.26L103.186 26.7275H109.432L111.071 23.2701H100.187L90.9023 42.7379H102.66L104.354 39.2084H97.2222L99.7354 34.017Z" fill="#02041A" fill-opacity="0.8"/>
<path d="M150.973 42.7342H162.73L164.439 39.2084H157.292L159.806 34.017H165.835L167.382 30.7724H161.331L163.256 26.7275H169.502L171.137 23.2701H160.258L150.973 42.7342Z" fill="#02041A" fill-opacity="0.8"/>
<path d="M26.7151 32.6037C27.1083 31.807 27.8872 30.1559 28.7728 28.2379C30.327 24.8635 28.4053 23.3025 26.3661 23.2953H17.4448L8.18555 42.7918H12.9989L16.2323 35.9637C16.2323 35.9637 18.9513 35.9637 20.9207 35.9637C23.9227 35.9854 25.4916 35.0805 26.7151 32.6037ZM24.2313 28.0829C23.3642 29.8855 22.7028 31.2338 22.6293 31.3816C22.2398 32.1964 21.6813 32.5569 20.8399 32.5569H17.8196L20.6746 26.4894H23.7022C24.3672 26.493 24.8412 26.8211 24.2313 28.0829Z" fill="#02041A" fill-opacity="0.8"/>
<path d="M175.029 24.5931C175.032 24.5177 175.015 24.4427 174.98 24.3756C174.944 24.3086 174.892 24.2518 174.827 24.211C174.691 24.1433 174.538 24.1133 174.386 24.1245H173.6V25.8982H173.82V25.0798H174.224L174.742 25.8982H175.003L174.459 25.0798C174.779 25.0726 175.029 24.9428 175.029 24.5931ZM174.165 24.9104H173.827V24.2651H174.346C174.57 24.2651 174.816 24.2975 174.816 24.5715C174.805 24.95 174.412 24.9104 174.165 24.9104Z" fill="#02041A" fill-opacity="0.8"/>
<path d="M174.202 23.4252C173.882 23.4245 173.569 23.517 173.303 23.691C173.036 23.865 172.829 24.1127 172.706 24.4027C172.583 24.6927 172.551 25.012 172.613 25.32C172.675 25.628 172.829 25.911 173.056 26.1331C173.282 26.3551 173.57 26.5063 173.884 26.5674C174.198 26.6285 174.524 26.5968 174.819 26.4763C175.115 26.3557 175.367 26.1519 175.544 25.8905C175.722 25.629 175.816 25.3219 175.815 25.0078C175.814 24.5884 175.644 24.1864 175.342 23.8898C175.04 23.5932 174.63 23.4261 174.202 23.4252ZM174.202 26.4066C173.922 26.4045 173.648 26.3208 173.415 26.1662C173.183 26.0117 173.003 25.793 172.897 25.5379C172.791 25.2828 172.764 25.0026 172.82 24.7327C172.876 24.4628 173.013 24.2152 173.212 24.0211C173.411 23.8271 173.665 23.6953 173.94 23.6423C174.216 23.5894 174.501 23.6176 174.76 23.7235C175.019 23.8294 175.241 24.0082 175.396 24.2374C175.552 24.4666 175.635 24.736 175.635 25.0114C175.636 25.1959 175.599 25.3786 175.527 25.549C175.455 25.7194 175.35 25.8741 175.216 26.0042C175.083 26.1342 174.925 26.2371 174.751 26.3068C174.577 26.3765 174.39 26.4117 174.202 26.4102V26.4066Z" fill="#02041A" fill-opacity="0.8"/>
</svg>
