<svg width="64" height="64" viewBox="0 0 64 64" fill="none" xmlns="http://www.w3.org/2000/svg">
<g clip-path="url(#clip0)">
<path d="M54.8169 9.86755H3.80075C1.705 9.86755 0 11.5726 0 13.6683V44.2781C0 46.3738 1.705 48.0788 3.80075 48.0788H37.2747C38.9291 48.0186 38.9307 45.6386 37.2747 45.5788H3.80075C3.0835 45.5788 2.5 44.9953 2.5 44.2781V13.6683C2.5 12.9511 3.0835 12.3676 3.80075 12.3676H54.8169C55.5341 12.3676 56.1176 12.9511 56.1176 13.6683V38.0954C56.1684 39.7398 58.5569 39.7601 58.6176 38.0954V13.6683C58.6176 11.5726 56.9126 9.86755 54.8169 9.86755Z" fill="black"/>
<path d="M50.9908 27.7236H34.7617C34.0713 27.7236 33.5117 28.2834 33.5117 28.9736C33.5117 29.6639 34.0713 30.2236 34.7617 30.2236H50.9908C52.6426 30.1645 52.6508 27.7863 50.9908 27.7236Z" fill="black"/>
<path d="M50.9908 22.6216H34.7617C34.0713 22.6216 33.5117 23.1813 33.5117 23.8716C33.5117 24.5618 34.0713 25.1216 34.7617 25.1216H50.9908C52.6426 25.0625 52.6508 22.6841 50.9908 22.6216Z" fill="black"/>
<path d="M50.9908 17.5204H34.7617C34.0713 17.5204 33.5117 18.0801 33.5117 18.7704C33.5117 19.4606 34.0713 20.0204 34.7617 20.0204H50.9908C52.6426 19.9613 52.6508 17.583 50.9908 17.5204Z" fill="black"/>
<path d="M6.37695 27.6981C6.37695 34.0134 11.5148 39.1514 17.8302 39.1514C33.0035 38.5755 32.9995 16.8185 17.8301 16.245C11.5148 16.245 6.37695 21.3829 6.37695 27.6981ZM12.4816 34.874C12.7933 33.7578 13.4493 32.7673 14.3591 32.0366C16.2067 33.8239 19.4538 33.8235 21.3011 32.0366C22.2108 32.7671 22.8668 33.7578 23.1786 34.8741C20.2238 37.2174 15.4362 37.2171 12.4816 34.874ZM20.4671 28.2531C20.3348 31.7458 15.3255 31.7465 15.1932 28.2531V26.3096C15.1932 24.8556 16.3762 23.6726 17.8302 23.6726C19.2842 23.6726 20.4671 24.8556 20.4671 26.3096V28.2531ZM26.7833 27.6981C26.7833 29.642 26.1607 31.443 25.1043 32.9125C24.5518 31.7513 23.7242 30.7315 22.6815 29.9428C23.087 28.9959 22.9425 27.3344 22.967 26.3095C22.967 23.477 20.6625 21.1725 17.83 21.1725C14.9975 21.1725 12.6931 23.477 12.6931 26.3095C12.7232 27.339 12.5731 28.9898 12.9787 29.9429C11.9361 30.7316 11.1083 31.7514 10.5558 32.9125C6.30645 27.1424 10.6083 18.6769 17.8302 18.7451C22.767 18.745 26.7833 22.7614 26.7833 27.6981Z" fill="black"/>
<path fill-rule="evenodd" clip-rule="evenodd" d="M49.9709 62.1342C57.698 62.1342 64.0004 55.8319 64.0004 48.1047C63.2828 29.5206 36.6563 29.5257 35.9414 48.1048C35.9414 55.8319 42.2437 62.1342 49.9709 62.1342Z" fill="#9597F0"/>
<path d="M56.3479 45.5792H55.0471V43.0031C55.0471 40.2039 52.77 37.9268 49.9709 37.9268C47.1718 37.9268 44.8946 40.2041 44.8946 43.0031V45.5792H43.5938C42.9034 45.5792 42.3438 46.1389 42.3438 46.8292V54.4817C42.3438 55.1719 42.9034 55.7317 43.5938 55.7317H56.3479C57.0382 55.7317 57.5979 55.1719 57.5979 54.4817V46.8292C57.5979 46.1388 57.0382 45.5792 56.3479 45.5792ZM47.3946 43.0031C47.5245 39.5894 52.4181 39.5913 52.5471 43.0031V45.5792H47.3946V43.0031ZM55.0979 53.2317H44.8438V48.0792H55.0979V53.2317Z" fill="black"/>
</g>
<defs>
<clipPath id="clip0">
<rect width="64" height="64" fill="white"/>
</clipPath>
</defs>
</svg>
