<svg width="48" height="48" viewBox="0 0 48 48" fill="none" xmlns="http://www.w3.org/2000/svg">
<rect width="48" height="48" rx="8" fill="#686AEA" fill-opacity="0.1"/>
<path d="M32.3364 23.3379C31.8841 22.2484 31.1549 21.2726 30.2222 20.4732L29.9808 17.5709L27.4929 18.8724C26.4012 18.462 25.1959 18.2343 23.9289 18.2343C19.7359 18.2343 16.2186 20.727 15.2596 24.0875C15.0392 23.9964 14.7979 23.9458 14.545 23.9458C13.51 23.9458 12.668 24.7878 12.668 25.8228V27.5249H14.545V26.1773H14.0156V25.8228C14.0156 25.5309 14.2531 25.2935 14.545 25.2935C14.7461 25.2935 14.9213 25.4062 15.0108 25.5718C15.0044 25.6916 15.0007 25.812 15.0007 25.9332C15.0007 28.3038 16.2435 30.4237 18.1974 31.836L18.5913 34.9999H21.4846L21.7682 33.4047C22.4601 33.553 23.1837 33.6323 23.9289 33.6323C24.6082 33.6323 25.2697 33.5666 25.9055 33.4427L26.0994 34.9999H28.9927L29.5401 31.9215C30.8013 31.0414 31.779 29.8713 32.3364 28.5286L34.3329 27.9828V23.8837L32.3364 23.3379ZM20.8258 22.8247V21.477H25.6271V22.8247H20.8258ZM28.5094 24.7806C28.1373 24.7806 27.8356 24.4789 27.8356 24.1068C27.8356 23.7347 28.1373 23.433 28.5094 23.433C28.8816 23.433 29.1833 23.7347 29.1833 24.1068C29.1833 24.4789 28.8816 24.7806 28.5094 24.7806Z" fill="#686AEA"/>
<path d="M23.2266 16.8281C24.5598 16.8281 25.6406 15.7473 25.6406 14.4141C25.6406 13.0808 24.5598 12 23.2266 12C21.8933 12 20.8125 13.0808 20.8125 14.4141C20.8125 15.7473 21.8933 16.8281 23.2266 16.8281Z" fill="#686AEA"/>
</svg>
