<svg width="64" height="64" viewBox="0 0 64 64" fill="none" xmlns="http://www.w3.org/2000/svg">
<path fill-rule="evenodd" clip-rule="evenodd" d="M29.3672 2.00098V34.6297L52.7624 57.375C58.4782 51.498 61.9982 43.4745 61.9982 34.6288C61.9982 16.609 47.3902 2.00098 29.3704 2.00098C29.3693 2.00098 29.3682 2.00098 29.3672 2.00098Z" fill="#686AEA" fill-opacity="0.8"/>
<g clip-path="url(#clip0)">
<path d="M29.6317 5.73639C13.8445 5.73639 1 18.5809 1 34.3681C1 50.1553 13.8445 62.9998 29.6317 62.9998C45.4189 62.9998 58.2634 50.1553 58.2634 34.3681C58.2634 18.5809 45.419 5.73639 29.6317 5.73639ZM29.6317 60.5101C15.2162 60.5101 3.48968 48.7835 3.48968 34.3681C3.48968 19.9526 15.2162 8.22607 29.6317 8.22607C44.0471 8.22607 55.7737 19.9526 55.7737 34.3681C55.7737 48.7835 44.0471 60.5101 29.6317 60.5101Z" fill="#02041A"/>
<path d="M29.6316 15.6952C28.9445 15.6952 28.3867 16.2529 28.3867 16.9401V31.8784C28.3867 32.5655 28.9445 33.1233 29.6316 33.1233C30.3188 33.1233 30.8765 32.5655 30.8765 31.8784V16.9401C30.8765 16.2529 30.3188 15.6952 29.6316 15.6952Z" fill="#02041A"/>
<path d="M57.0178 33.1233H54.5281C53.8409 33.1233 53.2832 33.6811 53.2832 34.3682C53.2832 35.0554 53.8409 35.613 54.5281 35.613H57.0178C57.7049 35.613 58.2627 35.0553 58.2627 34.3681C58.2627 33.6809 57.7049 33.1233 57.0178 33.1233Z" fill="#02041A"/>
<path d="M29.6316 5.7365C28.9445 5.7365 28.3867 6.29423 28.3867 6.98139V9.47107C28.3867 10.1582 28.9445 10.716 29.6316 10.716C30.3188 10.716 30.8765 10.1582 30.8765 9.47107V6.98139C30.8765 6.29423 30.3188 5.7365 29.6316 5.7365Z" fill="#02041A"/>
<path d="M4.73457 33.1233H2.2449C1.55774 33.1233 1 33.6809 1 34.3681C1 35.0553 1.55774 35.613 2.2449 35.613H4.73457C5.42173 35.613 5.97947 35.0553 5.97947 34.3681C5.97947 33.6809 5.42173 33.1233 4.73457 33.1233Z" fill="#02041A"/>
<path d="M29.6316 58.0204C28.9445 58.0204 28.3867 58.5781 28.3867 59.2653V61.755C28.3867 62.4421 28.9445 62.9999 29.6316 62.9999C30.3188 62.9999 30.8765 62.4421 30.8765 61.755V59.2653C30.8765 58.5781 30.3188 58.0204 29.6316 58.0204Z" fill="#02041A"/>
<path d="M29.6311 30.6334C27.572 30.6334 25.8965 32.309 25.8965 34.368C25.8965 36.427 27.572 38.1026 29.6311 38.1026C31.6901 38.1026 33.3656 36.427 33.3656 34.368C33.3656 32.3091 31.6901 30.6334 29.6311 30.6334ZM29.6311 35.6129C28.9439 35.6129 28.3862 35.0527 28.3862 34.368C28.3862 33.6833 28.9439 33.1231 29.6311 33.1231C30.3182 33.1231 30.876 33.6834 30.876 34.368C30.876 35.0527 30.3182 35.6129 29.6311 35.6129Z" fill="#02041A"/>
<path d="M40.4705 43.4482L33.0013 35.979C32.5158 35.4935 31.7266 35.4935 31.2411 35.979C30.7556 36.4645 30.7556 37.2538 31.2411 37.7393L38.7102 45.2084C38.9543 45.4499 39.2729 45.572 39.5916 45.572C39.9103 45.572 40.2289 45.45 40.4705 45.2084C40.956 44.7229 40.956 43.9337 40.4705 43.4482Z" fill="#02041A"/>
</g>
<defs>
<clipPath id="clip0">
<rect width="57.2635" height="57.2635" fill="white" transform="translate(1 5.73639)"/>
</clipPath>
</defs>
</svg>
