<svg width="64" height="64" viewBox="0 0 64 64" fill="none" xmlns="http://www.w3.org/2000/svg">
<g clip-path="url(#clip0)">
<path d="M27.2112 34.8476C27.2112 41.929 21.4702 47.6699 14.3888 47.6699C7.30684 47.6699 1.56641 41.929 1.56641 34.8476C1.56641 27.7661 7.30684 22.0252 14.3888 22.0252C21.4702 22.0252 27.2112 27.7661 27.2112 34.8476Z" fill="#686AEA" fill-opacity="0.8"/>
<path d="M5.25782 34.8476C5.25782 28.3929 10.0273 23.0528 16.2345 22.1579C15.6317 22.0713 15.0156 22.0252 14.3888 22.0252C7.30732 22.0252 1.56641 27.7661 1.56641 34.8476C1.56641 41.929 7.30732 47.6699 14.3888 47.6699C15.0156 47.6699 15.6317 47.6238 16.2345 47.5368C10.0273 46.6418 5.25782 41.3023 5.25782 34.8476Z" fill="#686AEA" fill-opacity="0.8"/>
<path d="M45.5918 56.6029C45.5918 53.705 47.5159 51.2571 50.1556 50.4645C49.5711 50.289 48.9516 50.1934 48.3099 50.1934C44.7699 50.1934 41.9004 53.0629 41.9004 56.6029C41.9004 60.1429 44.7699 63.0124 48.3099 63.0124C48.9516 63.0124 49.5711 62.9172 50.1556 62.7413C47.5159 61.9487 45.5918 59.5012 45.5918 56.6029Z" fill="#8688EE"/>
<path d="M18.3308 32.4497L12.7838 37.9972L9.95389 35.1673C9.60555 34.8189 9.04077 34.8189 8.6929 35.1673C8.34456 35.5156 8.34456 36.0804 8.6929 36.4287L12.1531 39.8889C12.5014 40.2373 13.0662 40.2373 13.4146 39.8889L19.5923 33.7107C19.9406 33.3628 19.9406 32.7981 19.5923 32.4497C19.2439 32.1014 18.6792 32.1014 18.3308 32.4497Z" fill="#020202" stroke="black" stroke-width="0.5"/>
<path d="M13.8973 49.0512C18.0592 49.0512 22.0313 47.0986 24.5695 43.6733L40.2788 53.7482C39.8385 54.6711 39.5909 55.7027 39.5909 56.7918C39.5909 60.6983 42.7692 63.8771 46.6762 63.8771C50.5832 63.8771 53.7615 60.6983 53.7615 56.7918C53.7615 52.8848 50.5832 49.7061 46.6762 49.7061C44.497 49.7061 42.5453 50.6958 41.2444 52.2485L25.5323 42.1717C26.262 40.8475 26.7669 39.4017 27.0093 37.8927C27.0873 37.4064 26.7566 36.9484 26.2703 36.8704C25.7841 36.7924 25.3266 37.1231 25.2481 37.6093C24.3489 43.2056 19.5748 47.2677 13.8973 47.2677C7.55698 47.2677 2.39874 42.1095 2.39874 35.7696C2.39874 29.4294 7.55698 24.2711 13.8973 24.2711C19.5562 24.2711 24.2574 28.3337 25.2179 33.7451C25.3038 34.23 25.7669 34.5532 26.2518 34.4673C26.7367 34.3814 27.0599 33.9183 26.974 33.4334C26.7213 32.0113 26.2476 30.6778 25.5941 29.4633L43.7269 18.0544C44.9712 19.6674 46.7407 20.8736 48.8275 21.4022C49.3055 21.5229 49.7904 21.234 49.9111 20.7566C50.0319 20.2791 49.743 19.7938 49.2655 19.673C47.338 19.1849 45.7454 17.9815 44.7385 16.3893C44.7348 16.3833 44.7315 16.3768 44.7278 16.3707C44.7241 16.3652 44.7204 16.3601 44.7167 16.3549C41.5718 11.323 45.209 4.78351 51.1275 4.78351C55.2965 4.78351 58.6879 8.17542 58.6879 12.3439C58.6879 15.8097 56.3448 18.8231 52.9895 19.6725C52.5121 19.7938 52.2232 20.2787 52.3439 20.7561C52.4647 21.2336 52.9496 21.5229 53.4275 21.4017C57.5751 20.3516 60.4714 16.6271 60.4714 12.3439C60.4714 7.19171 56.2797 3 51.1275 3C44.2136 3 39.6481 10.3142 42.778 16.5435L24.6448 27.9533C22.2124 24.6088 18.2748 22.4871 13.8973 22.4871C6.57327 22.4871 0.615234 28.4456 0.615234 35.7692C0.615234 43.0932 6.57373 49.0512 13.8973 49.0512ZM46.6762 51.4901C49.5995 51.4901 51.9779 53.8681 51.9779 56.7918C51.9779 59.7151 49.5995 62.0936 46.6762 62.0936C43.7529 62.0936 41.3744 59.7151 41.3744 56.7918C41.3744 53.8681 43.7529 51.4901 46.6762 51.4901Z" fill="#020202" stroke="black" stroke-width="0.5"/>
</g>
<defs>
<clipPath id="clip0">
<rect width="63" height="63" fill="white" transform="translate(0 1)"/>
</clipPath>
</defs>
</svg>
