<svg width="184" height="63" viewBox="0 0 184 63" fill="none" xmlns="http://www.w3.org/2000/svg">
<path d="M107.812 24.4677L107.856 24.3956L107.808 24.4677C106.997 23.906 105.824 23.6454 104.676 23.6454C102.073 23.6477 100.212 24.947 98.9879 26.7723C97.771 28.6031 97.1978 30.9615 97.1978 33.0609C97.1978 34.578 97.424 35.9929 98.3402 37.27C98.7916 37.8935 99.886 39.3916 103.424 39.3963C105.88 39.3947 107.044 38.7523 107.674 38.3807L107.779 38.2373C107.903 37.6938 108.317 35.2261 108.486 34.6073L108.359 34.5091C107.117 35.5026 105.762 36.2282 104.224 36.2282C103.193 36.2282 102.409 35.9811 101.879 35.5041C101.352 35.0312 101.093 34.3317 101.093 33.465C101.093 33.1457 101.119 32.8542 101.144 32.5349L101.152 32.4596L101.224 32.4573C103.629 32.3955 104.854 32.3622 106.868 32.3622C107.526 32.3622 108.268 32.3654 109.163 32.3725L109.319 32.2632C109.519 31.3212 109.736 30.2438 109.736 28.9184C109.736 27.742 109.612 25.6505 107.812 24.4677ZM106.219 29.6219L106.205 29.6908L103.848 29.7209L101.518 29.7518L101.539 29.6726L101.55 29.6377C101.598 29.473 101.649 29.2915 101.707 29.107C101.868 28.5888 102.097 28.0248 102.503 27.5075C102.574 27.4195 102.649 27.3292 102.728 27.2452C103.45 26.4483 104.134 26.3247 104.577 26.3247C105.201 26.3247 105.658 26.5766 105.952 26.9513C106.001 27.0171 106.043 27.0812 106.084 27.1549C106.229 27.4045 106.318 27.6881 106.35 27.9852C106.365 28.0913 106.371 28.203 106.371 28.31C106.372 28.7552 106.293 29.1925 106.219 29.6219ZM97.0675 26.9442L96.9074 27.1042L94.5866 27.044L93.5118 32.1507C93.3634 32.7908 93.0353 34.3887 93.0353 34.9036C93.0321 35.3845 93.2119 35.7125 93.4631 35.9074C93.7112 36.1046 94.0221 36.1696 94.3 36.1704C94.9454 36.1704 95.1707 35.989 95.601 35.8234L95.6771 35.8947L95.1063 38.8362L94.9101 39.0287C94.1156 39.1983 93.5244 39.3377 92.6882 39.3377C90.5292 39.325 88.9708 38.5938 88.9622 36.0547C88.9622 34.8664 89.4379 32.7028 89.792 31.0946L90.6486 27.0408L88.8264 27.1034L88.7164 26.9434L89.2495 24.0866L89.4152 23.9947H91.2664L92.0068 20.2325L92.1512 20.0677C94.0049 19.5892 94.5395 19.3587 96.2282 18.7978L96.3177 18.8992L95.758 21.3226L95.1778 24.0518L97.5551 23.9781L97.6171 24.1033L97.0675 26.9442ZM125.687 22.1251L125.559 22.2685L119.435 22.2534L118.439 27.41L123.798 27.2468L123.878 27.3752C123.437 28.8574 123.335 29.2765 123.038 30.5694L122.902 30.7001L117.805 30.689L117.135 34.2667L116.287 38.9131L116.174 39.02L111.785 39.1341L111.732 39.02L112.492 35.0645L113.657 29.4801C114.534 25.1411 114.786 23.7555 115.615 19.0283L115.747 18.8984H122.161L126.234 18.7906L126.312 18.8984L125.687 22.1251ZM134.339 24.6349C133.487 24.0288 132.128 23.7175 130.262 23.7175C129.341 23.7175 128.412 23.807 127.48 23.9852C126.646 24.1453 126.129 24.2807 125.688 24.4083L125.567 24.5319L124.962 27.6604L125.157 27.7792C125.546 27.5986 126.116 27.3767 126.868 27.1082C127.638 26.8349 128.346 26.6978 128.985 26.6978C129.92 26.6978 130.633 26.8269 131.117 27.0939C131.616 27.3649 131.974 27.9598 131.972 28.6142C131.972 28.7758 131.959 28.9176 131.937 29.0459C131.912 29.1664 131.898 29.2551 131.891 29.3058L131.881 29.3723C131.881 29.3723 131.579 29.3937 131.258 29.4215C131.046 29.4421 130.776 29.473 130.463 29.5094C129.952 29.5649 129.364 29.6377 128.851 29.7249C127.62 29.9317 124.156 30.4759 123.116 32.8169C122.027 34.7349 122.213 37.2795 123.283 38.5178C123.66 38.9559 124.236 39.3678 125.014 39.5263L125.012 39.5286C125.046 39.5405 125.165 39.5556 125.192 39.5619C128.187 40.0293 130.336 37.396 130.336 37.396L130.015 39.0192L130.147 39.1333L133.512 39.0192L133.651 38.8964L135.632 28.8574C135.673 28.6459 135.707 28.3955 135.732 28.1111C135.754 27.8228 135.768 27.5891 135.768 27.4171C135.766 26.1322 135.189 25.2401 134.339 24.6349ZM130.875 34.6723C130.875 34.6723 130.07 35.9478 128.911 36.4049C127.748 36.8588 126.909 36.5008 126.581 36.0468C126.316 35.6919 125.764 34.5717 126.811 33.3113C127.872 32.0382 131.38 31.9566 131.38 31.9566L130.875 34.6723ZM147.212 23.5131L146.387 27.8307L146.215 28.0073C145.979 27.9646 145.679 27.9297 145.324 27.9297C144.213 27.9297 142.634 28.2894 141.398 29.942L141.385 29.9554L139.683 38.9147L139.562 39.0216L135.866 39.1349L135.77 39.0367L138.678 23.9963L138.835 23.8387L142.494 23.4814L142.638 23.639L142.217 25.8176L142.397 25.6529C143.161 24.9533 143.84 24.4701 144.597 24.0344C145.348 23.5986 146.101 23.3824 146.858 23.3824C146.931 23.3824 147.005 23.3824 147.084 23.3855L147.212 23.5131ZM167 27.2975C167 28.2062 166.797 29.1497 166.597 30.0679L164.88 38.9139L164.748 39.0208L160.879 39.1587L160.784 39.0208C160.784 39.0208 162.766 29.2496 162.766 28.7639C162.766 28.3211 162.534 27.1343 161.303 27.1343C160.334 27.1343 159.331 28.1222 159.331 28.1222L157.242 38.9147L157.113 39.0216L155.448 39.0802L153.957 39.1309L153.221 39.1555L153.176 39.0945L153.128 39.0208C153.128 39.0208 153.427 37.5338 153.798 35.6919H153.788C154.365 32.8114 155.104 29.0602 155.104 28.7639C155.104 28.3211 154.873 27.1343 153.641 27.1343C152.674 27.1343 151.672 28.1222 151.672 28.1222L149.582 38.9147L149.45 39.0216L148.852 39.0422L145.56 39.1539L145.476 39.0216L148.376 23.9963L148.522 23.8482L152.381 23.4814L152.537 23.639L152.128 25.7543C152.128 25.7543 153.99 23.6945 156.364 23.647C158.58 23.605 159.043 25.7543 159.043 25.7543C159.043 25.7543 161.248 23.5978 163.599 23.647C164.788 23.6565 166.994 24.1857 167 27.2975ZM86.2128 24.6349C85.3625 24.0288 84.0043 23.7175 82.1397 23.7175C81.2156 23.7175 80.2884 23.807 79.3589 23.9852C78.5235 24.1453 78.0062 24.2807 77.5641 24.4083L77.444 24.5319L76.8387 27.6604L77.0342 27.7792C77.4228 27.5986 77.9936 27.3767 78.7441 27.1082C79.5143 26.8349 80.2217 26.6978 80.8608 26.6978C81.7966 26.6978 82.5048 26.8269 82.9947 27.0939C83.4916 27.3649 83.8473 27.9598 83.8473 28.6142C83.8473 28.7758 83.8363 28.9176 83.8143 29.0459C83.7884 29.1664 83.7743 29.2551 83.768 29.3058L83.7586 29.3723C83.7586 29.3723 83.4571 29.3937 83.136 29.4215C82.9248 29.4421 82.6516 29.473 82.3415 29.5094C81.8296 29.5649 81.2408 29.6377 80.7297 29.7249C79.4963 29.9317 76.034 30.4759 74.9937 32.8169C73.904 34.7349 74.0909 37.2795 75.161 38.5178C75.5355 38.9559 76.1125 39.3678 76.8913 39.5263L76.8897 39.5286C76.9227 39.5405 77.0428 39.5556 77.068 39.5619C80.0647 40.0293 82.2135 37.396 82.2135 37.396L81.8916 39.0192L82.0227 39.1333L85.39 39.0192L85.5289 38.8964L87.5074 28.8574C87.5506 28.6459 87.5843 28.3955 87.6118 28.1111C87.6314 27.8228 87.6464 27.5891 87.6464 27.4171C87.6432 26.1322 87.0693 25.2401 86.2128 24.6349ZM82.7505 34.6723C82.7505 34.6723 81.9481 35.9478 80.7878 36.4049C79.6258 36.8588 78.7881 36.5008 78.456 36.0468C78.193 35.6919 77.6427 34.5717 78.6915 33.3113C79.7491 32.0382 83.26 31.9566 83.26 31.9566L82.7505 34.6723ZM74.6397 26.9442L74.4779 27.1042L72.1595 27.044L71.0855 32.1507C70.9348 32.7908 70.605 34.3887 70.605 34.9036C70.6043 35.3845 70.7825 35.7125 71.0329 35.9074C71.2842 36.1046 71.5935 36.1696 71.8706 36.1704C72.5168 36.1704 72.7429 35.989 73.1715 35.8234L73.2485 35.8947L72.6785 38.8362L72.4822 39.0287C71.6908 39.1983 71.0965 39.3377 70.2588 39.3377C68.1045 39.325 66.543 38.5938 66.5343 36.0547C66.5343 34.8664 67.0117 32.7028 67.3642 31.0946L68.2199 27.0408L66.3969 27.1034L66.287 26.9434L66.8217 24.0866L66.9865 23.9947H68.837L69.5781 20.2325L69.7234 20.0677C71.5739 19.5892 72.1101 19.3587 73.802 18.7978L73.8883 18.8992L73.3285 21.3226L72.7531 24.0534L75.1256 23.9797L75.1908 24.1049L74.6397 26.9442ZM65.9235 20.0059L65.2185 23.6691L65.063 23.719C64.7828 23.3214 64.6132 23.1653 64.223 22.8611C63.3562 22.1877 62.3278 21.8066 61.2781 21.8066C60.4553 21.8066 59.7715 22.0657 59.2973 22.4974C58.8192 22.9276 58.5475 23.54 58.5475 24.2237C58.5499 25.5166 59.4268 26.1472 60.9853 27.0892L61.5914 27.4362C62.897 28.2997 64.9249 29.6243 64.9249 32.6308C64.9202 36.0476 62.7509 39.4755 57.5465 39.4835C56.2707 39.4835 55.0217 39.2529 53.8197 38.8006C53.0087 38.4869 52.6177 38.2151 52.127 37.8483L52.0862 37.613L52.7771 34.0393L52.9317 33.987C53.245 34.3958 53.6375 34.7301 54.2248 35.1223C55.4786 35.966 56.6814 36.0563 57.194 36.0563C59.0312 36.0547 60.4757 34.9963 60.4757 33.3525C60.4742 31.8805 59.3209 31.143 58.1165 30.4268L57.2835 29.9087C55.9724 29.0436 54.1549 27.8671 54.1494 24.9177C54.1494 23.7832 54.4729 22.1552 55.4684 20.8219C56.7811 19.0687 58.8451 18.4389 60.924 18.4389C63.6004 18.4389 65.1314 19.3951 65.8489 19.8586L65.9235 20.0059ZM28.2891 26.4586C29.3435 27.1153 30.825 27.5328 32.4925 27.5328C34.1577 27.5328 35.6533 27.1153 36.7234 26.4586C37.7974 25.8026 38.4302 24.9169 38.4326 23.9821C38.4302 23.0449 37.8013 22.1679 36.732 21.5175C35.6659 20.8678 34.1742 20.4591 32.5043 20.4559C30.8375 20.4591 29.3537 20.8678 28.2946 21.5175C27.2347 22.1687 26.6122 23.0425 26.6098 23.9797C26.6122 24.9193 27.2332 25.8026 28.2891 26.4586ZM28.5553 31.5256C27.4891 30.8752 25.9966 30.4656 24.3299 30.4656C22.6615 30.4656 21.1777 30.8752 20.1194 31.5224C19.0587 32.1736 18.4362 33.0443 18.4338 33.9815C18.4362 34.9219 19.0556 35.8052 20.1139 36.4643C21.1675 37.1163 22.649 37.5346 24.3173 37.5378C25.9856 37.5338 27.4813 37.1163 28.5506 36.4611C29.6222 35.8052 30.255 34.9219 30.2581 33.9847C30.2542 33.0506 29.6246 32.1768 28.5553 31.5256ZM44.8704 31.5256C43.8026 30.8752 42.3094 30.4656 40.6418 30.4656C38.9751 30.4656 37.4889 30.8752 36.4329 31.5224C35.3723 32.1728 34.7512 33.0443 34.7497 33.9839C34.7512 34.9211 35.3691 35.8044 36.4282 36.4635C37.4826 37.1155 38.9633 37.5338 40.6301 37.537C42.2968 37.533 43.794 37.1155 44.8649 36.4604C45.9365 35.8044 46.5693 34.9211 46.5709 33.9839C46.5693 33.0506 45.9397 32.1768 44.8704 31.5256ZM40.6238 28.0105C39.8701 28.0105 39.1423 28.0826 38.4506 28.2133C39.9619 27.1248 40.8923 25.6267 40.8923 23.9734C40.8923 20.6468 37.1489 18 32.5012 18C27.8542 18.0008 24.1493 20.6476 24.1493 23.9741C24.1493 25.6299 25.0624 27.128 26.5588 28.2165C25.8537 28.0826 25.1142 28.0105 24.3511 28.0105C19.7041 28.0105 16 30.6581 16 33.9815C16 37.3025 19.6845 40 24.333 40C28.2891 40 31.6054 38.048 32.5082 35.4178C33.3883 38.048 36.6473 40 40.6041 40C45.2519 40 49.0165 37.3033 49.0165 33.9815C49.0165 30.6581 45.2692 28.0105 40.6238 28.0105ZM25.6645 23.971C25.67 22.4729 26.7974 21.4612 27.4585 20.9898C28.7806 20.0416 30.5722 19.5306 32.5019 19.5306C34.438 19.5306 36.2359 20.0439 37.5682 20.9898C38.2347 21.4644 39.3755 22.4776 39.381 23.971C39.359 26.4681 36.1817 28.4557 32.4815 28.4613C30.5596 28.4613 28.7759 27.9424 27.4593 26.987C26.3122 26.1575 25.6645 25.0888 25.6645 23.971ZM24.333 38.4686C22.4087 38.4686 20.6266 37.9489 19.306 36.9919C18.1645 36.1656 17.5152 35.0969 17.5152 33.9815C17.5215 32.4834 18.6481 31.4694 19.3068 30.9972C20.6305 30.0552 22.4213 29.5411 24.3519 29.5379C26.2887 29.5411 28.0866 30.0544 29.4189 31.0012C30.0862 31.4749 31.2285 32.4866 31.2348 33.9815C31.212 36.4754 28.0324 38.4631 24.333 38.4686ZM32.5106 32.5492C32.1463 31.49 31.3895 30.544 30.3571 29.7954C31.0346 29.9229 31.7451 29.9911 32.4776 29.9911C33.2313 29.9911 33.9591 29.9198 34.6531 29.7883C33.6239 30.5377 32.8678 31.4844 32.5106 32.5492ZM40.6034 38.4686C38.6814 38.4686 36.8977 37.9489 35.5787 36.9919C34.4349 36.1656 33.784 35.0969 33.784 33.9815C33.7887 32.4834 34.9193 31.4717 35.5803 30.9972C36.9008 30.0552 38.6932 29.5411 40.623 29.5379C42.5598 29.5411 44.3569 30.0544 45.6931 31.0012C46.3597 31.4749 47.4973 32.4889 47.5004 33.9815C47.4824 36.4754 44.3035 38.4631 40.6034 38.4686Z" fill="#02041A" fill-opacity="0.8"/>
</svg>
