<svg width="65" height="70" viewBox="0 0 65 70" fill="none" xmlns="http://www.w3.org/2000/svg">
<path d="M40.9579 24.8997C33.5016 25.0033 24.2848 25.3658 21.644 25.5211L16.8285 6.82853C16.7249 6.36251 16.2071 6.05183 15.6893 6.15539C6.47249 8.53727 0 16.8738 0 26.4531C0 38.0001 9.37217 47.3722 20.9191 47.3722C32.466 47.3722 41.8382 38.0001 41.8382 26.4531C41.8382 26.246 41.8382 25.9871 41.8382 25.78C41.8382 25.314 41.4239 24.9515 40.9579 24.8997ZM20.9191 45.6117C10.356 45.6117 1.8123 37.0162 1.8123 26.5049C1.8123 18.1166 7.30097 10.712 15.2751 8.22659L20.0388 26.712C20.1424 27.1263 20.5566 27.3852 20.9709 27.3852C21.0744 27.3852 31.4304 26.8674 40.0259 26.7638C39.8705 37.1716 31.3786 45.6117 20.9191 45.6117Z" fill="#02041A"/>
<path d="M31.275 2.47911C30.7572 2.37555 30.2912 2.63445 30.1358 3.15225L25.1132 22.5697C25.0614 22.8286 25.1132 23.1393 25.2685 23.3982C25.4238 23.6053 25.6827 23.7607 25.9934 23.7607H26.0452C26.1488 23.7607 37.2815 23.2429 46.0323 23.1393C46.2912 23.1393 46.4983 23.0357 46.7054 22.8804C46.8607 22.7251 46.9643 22.4662 46.9643 22.2073C46.7054 12.8869 40.2329 4.8092 31.275 2.47911ZM27.2361 21.793L31.741 4.49852C39.1455 6.77684 44.4789 13.4565 45.1002 21.2234C38.2135 21.327 30.2394 21.6895 27.2361 21.793Z" fill="#02041A"/>
<path d="M22.0586 21.793C22.1622 22.2072 22.5246 22.4661 22.9389 22.4661C23.3531 22.4661 23.7156 22.2072 23.8191 21.793L28.8418 2.3755C28.8936 2.1166 28.8418 1.90948 28.7382 1.70236C28.6347 1.49524 28.4276 1.3399 28.1687 1.28812C24.7512 0.407865 21.0748 0.407865 17.6573 1.28812C17.3984 1.3399 17.2431 1.49524 17.0877 1.70236C16.9842 1.90948 16.9324 2.16838 16.9842 2.3755L22.0586 21.793ZM26.8224 2.84152L22.9389 17.9095L19.0554 2.84152C21.5926 2.32372 24.2852 2.32372 26.8224 2.84152Z" fill="#02041A"/>
<path d="M9.26884 30.8542C9.1135 30.8025 8.95816 30.6989 8.80282 30.6471L8.5957 30.5436L8.64748 30.2847L8.80282 28.9902L8.8546 28.5241L9.26884 28.7313C9.32062 28.783 9.3724 28.783 9.47596 28.8348C9.52774 28.8866 9.57952 28.8866 9.68308 28.9384C9.83842 28.9902 9.99376 29.0419 10.1491 29.0937C10.3044 29.1455 10.4598 29.1973 10.6151 29.1973C10.7705 29.1973 10.874 29.2491 11.0294 29.2491C11.1847 29.2491 11.2883 29.3008 11.4436 29.3008C11.5472 29.3008 11.6507 29.3008 11.7025 29.3008C11.8061 29.3008 11.8578 29.3008 11.9614 29.3008C12.065 29.3008 12.2203 29.2491 12.3239 29.2491C12.4274 29.1973 12.531 29.1973 12.6345 29.1455C12.7381 29.0937 12.8417 29.0419 12.8934 28.9384C12.9452 28.8866 13.0488 28.783 13.1006 28.6795C13.1523 28.5759 13.2041 28.4724 13.2041 28.3688C13.2041 28.2652 13.2559 28.1617 13.2041 28.0581C13.2041 27.9546 13.1523 27.851 13.1523 27.7474C13.1006 27.6439 13.0488 27.5403 12.997 27.4885C12.9452 27.385 12.8934 27.3332 12.7899 27.2814C12.7381 27.2296 12.6345 27.1779 12.531 27.1261C12.4274 27.0743 12.3239 27.0225 12.2203 26.9707C12.1167 26.919 12.0132 26.8672 11.9096 26.8672C11.7025 26.8154 11.4954 26.7118 11.2883 26.6083C11.0811 26.5047 10.874 26.4012 10.6669 26.2976C10.4598 26.194 10.3044 26.0905 10.0973 25.9869C9.94198 25.8834 9.78664 25.7798 9.6313 25.6245C9.47596 25.5209 9.3724 25.3656 9.21706 25.2102C9.1135 25.0549 9.00994 24.8995 8.90638 24.7442C8.80282 24.5371 8.75104 24.3817 8.69926 24.1746C8.64748 23.9675 8.64748 23.7604 8.64748 23.605C8.64748 23.3461 8.64748 23.0872 8.69926 22.8801C8.75104 22.673 8.80282 22.4141 8.90638 22.207C9.00994 21.9999 9.1135 21.7927 9.21706 21.6374C9.3724 21.4303 9.47596 21.2749 9.68308 21.1196C9.83842 20.9643 10.0455 20.8607 10.2527 20.7054C10.4598 20.6018 10.6669 20.4982 10.874 20.4465L10.9776 20.3947V19.2555V18.8931H11.34H12.3756H12.7381V19.2555V20.2911H12.8417C12.9452 20.2911 13.0488 20.3429 13.2041 20.3429C13.3077 20.3947 13.463 20.3947 13.5666 20.4465C13.6701 20.4465 13.7737 20.4982 13.8255 20.4982C13.8773 20.4982 13.9808 20.55 14.0844 20.6018L14.3433 20.7054L14.2915 20.9643L14.1362 22.1552V22.5177L13.7219 22.4141C13.6701 22.4141 13.5666 22.3623 13.463 22.3105C13.4112 22.3105 13.3077 22.2588 13.2041 22.2588C13.1006 22.207 12.9452 22.207 12.7899 22.207C12.6863 22.207 12.531 22.1552 12.4274 22.1552C12.3239 22.1552 12.2721 22.1552 12.1685 22.1552C12.1167 22.1552 12.0132 22.1552 11.9096 22.1552C11.7543 22.1552 11.6507 22.207 11.5472 22.207C11.4436 22.2588 11.34 22.3105 11.2365 22.3623C11.1329 22.4141 11.0811 22.5177 10.9776 22.5694C10.9258 22.673 10.874 22.7248 10.8222 22.8283C10.7705 22.9319 10.7705 23.0355 10.7187 23.139C10.7187 23.2426 10.7187 23.3461 10.7187 23.5015C10.7187 23.605 10.7705 23.7086 10.8222 23.8122C10.874 23.9157 10.9258 24.0193 10.9776 24.0711C11.0294 24.1228 11.1329 24.2264 11.1847 24.2782C11.2883 24.33 11.34 24.3817 11.4436 24.4335C11.5472 24.4853 11.6507 24.5371 11.7543 24.5889C11.8578 24.6406 11.9614 24.6924 12.065 24.6924C12.2721 24.7442 12.4792 24.8478 12.6863 24.9513C12.8934 25.0549 13.1006 25.1584 13.2559 25.262C13.4112 25.3656 13.6184 25.4691 13.7737 25.5727C13.929 25.6762 14.0844 25.8316 14.2397 25.9351C14.3951 26.0387 14.4986 26.194 14.6022 26.3494C14.7057 26.5047 14.8093 26.6601 14.9129 26.8154C15.0164 26.9707 15.0682 27.1779 15.12 27.385C15.1718 27.5921 15.1718 27.7474 15.1718 27.9546C15.1718 28.2135 15.1718 28.4206 15.12 28.6795C15.0682 28.8866 15.0164 29.1455 14.9129 29.3526C14.8093 29.5597 14.7057 29.7669 14.5504 29.9222C14.3951 30.0775 14.2397 30.2847 14.0844 30.44C13.929 30.5953 13.7219 30.6989 13.5148 30.8542C13.3077 30.9578 13.0488 31.0614 12.8417 31.1131L12.7381 31.1649V32.3041V32.6665H12.3756H11.34H11.0294V32.3041V31.2685H10.9258C10.7187 31.2685 10.5633 31.2167 10.3562 31.1649C10.1491 31.1131 9.99376 31.0614 9.78664 31.0096C9.6313 31.0096 9.47596 30.9578 9.26884 30.8542Z" fill="black"/>
<g filter="url(#filter0_d)">
<rect x="31" y="32" width="26" height="26" rx="13" fill="#7D71DE"/>
</g>
<path d="M44.214 39.738C44.886 39.738 45.46 39.8547 45.936 40.088C46.4213 40.3213 46.7853 40.6433 47.028 41.054C47.28 41.4647 47.406 41.922 47.406 42.426C47.406 43.0607 47.2333 43.5833 46.888 43.994C46.5427 44.3953 46.0853 44.6427 45.516 44.736V44.806C46.8973 45.2167 47.588 46.0287 47.588 47.242C47.588 48.0913 47.3033 48.782 46.734 49.314C46.1647 49.8367 45.362 50.098 44.326 50.098C43.2247 50.098 42.3473 49.8273 41.694 49.286C41.0407 48.7353 40.6767 47.9093 40.602 46.808H42.534C42.5807 47.312 42.744 47.7133 43.024 48.012C43.3133 48.3013 43.7193 48.446 44.242 48.446C44.69 48.446 45.04 48.3247 45.292 48.082C45.544 47.83 45.67 47.5033 45.67 47.102C45.67 46.626 45.488 46.262 45.124 46.01C44.76 45.758 44.2233 45.632 43.514 45.632H43.108V44.022H43.514C44.8207 44.0407 45.474 43.588 45.474 42.664C45.474 42.2627 45.3573 41.95 45.124 41.726C44.8907 41.4927 44.5733 41.376 44.172 41.376C43.752 41.376 43.4067 41.5113 43.136 41.782C42.8653 42.0433 42.7113 42.412 42.674 42.888H40.742C40.798 41.88 41.1247 41.1053 41.722 40.564C42.3193 40.0133 43.15 39.738 44.214 39.738Z" fill="white"/>
<defs>
<filter id="filter0_d" x="23" y="28" width="42" height="42" filterUnits="userSpaceOnUse" color-interpolation-filters="sRGB">
<feFlood flood-opacity="0" result="BackgroundImageFix"/>
<feColorMatrix in="SourceAlpha" type="matrix" values="0 0 0 0 0 0 0 0 0 0 0 0 0 0 0 0 0 0 127 0" result="hardAlpha"/>
<feOffset dy="4"/>
<feGaussianBlur stdDeviation="4"/>
<feComposite in2="hardAlpha" operator="out"/>
<feColorMatrix type="matrix" values="0 0 0 0 0.407843 0 0 0 0 0.415686 0 0 0 0 0.917647 0 0 0 0.22 0"/>
<feBlend mode="normal" in2="BackgroundImageFix" result="effect1_dropShadow"/>
<feBlend mode="normal" in="SourceGraphic" in2="effect1_dropShadow" result="shape"/>
</filter>
</defs>
</svg>
