<svg width="65" height="70" viewBox="0 0 65 70" fill="none" xmlns="http://www.w3.org/2000/svg">
<g clip-path="url(#clip0)">
<path d="M10.0681 43.7994C10.0681 44.6093 9.41139 45.266 8.60143 45.266C7.79147 45.266 7.13477 44.6093 7.13477 43.7994C7.13477 42.9894 7.79147 42.3327 8.60143 42.3327C9.41139 42.3327 10.0681 42.9894 10.0681 43.7994Z" fill="#B3B4F4"/>
<path d="M20.3357 43.7994C20.3357 44.6093 19.679 45.266 18.869 45.266C18.059 45.266 17.4023 44.6093 17.4023 43.7994C17.4023 42.9894 18.059 42.3327 18.869 42.3327C19.679 42.3327 20.3357 42.9894 20.3357 43.7994Z" fill="#B3B4F4"/>
<path d="M30.6013 43.7994C30.6013 44.6093 29.9446 45.266 29.1346 45.266C28.3247 45.266 27.668 44.6093 27.668 43.7994C27.668 42.9894 28.3247 42.3327 29.1346 42.3327C29.9446 42.3327 30.6013 42.9894 30.6013 43.7994Z" fill="#B3B4F4"/>
<path d="M40.8689 43.7994C40.8689 44.6093 40.2122 45.266 39.4022 45.266C38.5923 45.266 37.9355 44.6093 37.9355 43.7994C37.9355 42.9894 38.5923 42.3327 39.4022 42.3327C40.2122 42.3327 40.8689 42.9894 40.8689 43.7994Z" fill="#B3B4F4"/>
<path d="M5.66692 40.1327H11.5335C11.9385 40.1327 12.2668 39.8044 12.2668 39.3994V29.1329C12.2668 28.7279 11.9385 28.3996 11.5335 28.3996H5.66692C5.26194 28.3996 4.93359 28.7279 4.93359 29.1329V39.3994C4.93359 39.8044 5.26194 40.1327 5.66692 40.1327ZM6.40024 29.8662H10.8002V38.6661H6.40024V29.8662Z" fill="black" stroke="black" stroke-width="0.4"/>
<path d="M45.266 43.066H41.4644C41.1582 42.1873 40.3297 41.5986 39.3994 41.5986C38.4692 41.5986 37.6406 42.1873 37.3344 43.066H31.1979C30.8917 42.1873 30.0632 41.5986 29.1329 41.5986C28.2026 41.5986 27.3741 42.1873 27.0679 43.066H20.9314C20.6252 42.1873 19.7967 41.5986 18.8664 41.5986C17.9361 41.5986 17.1076 42.1873 16.8014 43.066H10.6649C10.3587 42.1873 9.53016 41.5986 8.5999 41.5986C7.66964 41.5986 6.84107 42.1873 6.53492 43.066H2.73332C2.32835 43.066 2 43.3943 2 43.7993C2 44.2043 2.32835 44.5326 2.73332 44.5326H6.53492C6.84107 45.4113 7.66964 46 8.5999 46C9.53016 46 10.3587 45.4113 10.6649 44.5326H16.8014C17.1076 45.4113 17.9361 46 18.8664 46C19.7967 46 20.6252 45.4113 20.9314 44.5326H27.0679C27.3741 45.4113 28.2026 46 29.1329 46C30.0632 46 30.8917 45.4113 31.1979 44.5326H37.3344C37.6406 45.4113 38.4692 46 39.3994 46C40.3297 46 41.1582 45.4113 41.4644 44.5326H45.266C45.671 44.5326 45.9993 44.2043 45.9993 43.7993C45.9993 43.3943 45.671 43.066 45.266 43.066ZM8.5999 44.5326C8.19492 44.5326 7.86657 44.2043 7.86657 43.7993C7.86657 43.3943 8.19492 43.066 8.5999 43.066C9.00487 43.066 9.33322 43.3943 9.33322 43.7993C9.33322 44.2043 9.00487 44.5326 8.5999 44.5326ZM18.8664 44.5326C18.4614 44.5326 18.1331 44.2043 18.1331 43.7993C18.1331 43.3943 18.4614 43.066 18.8664 43.066C19.2714 43.066 19.5997 43.3943 19.5997 43.7993C19.5997 44.2043 19.2714 44.5326 18.8664 44.5326ZM29.1329 44.5326C28.7279 44.5326 28.3996 44.2043 28.3996 43.7993C28.3996 43.3943 28.7279 43.066 29.1329 43.066C29.5379 43.066 29.8662 43.3943 29.8662 43.7993C29.8662 44.2043 29.5379 44.5326 29.1329 44.5326ZM39.3994 44.5326C38.9944 44.5326 38.6661 44.2043 38.6661 43.7993C38.6661 43.3943 38.9944 43.066 39.3994 43.066C39.8044 43.066 40.1327 43.3943 40.1327 43.7993C40.1327 44.2043 39.8044 44.5326 39.3994 44.5326Z" fill="black"/>
<path d="M15.1992 11.5332V39.3994C15.1992 39.8044 15.5276 40.1327 15.9325 40.1327H21.7991C22.2041 40.1327 22.5324 39.8044 22.5324 39.3994V11.5332C22.5324 11.1282 22.2041 10.7999 21.7991 10.7999H15.9325C15.5276 10.7999 15.1992 11.1282 15.1992 11.5332ZM16.6659 12.2665H21.0658V38.6661H16.6659V12.2665Z" fill="black" stroke="black" stroke-width="0.4"/>
<path d="M26.2001 40.1327H32.0667C32.4717 40.1327 32.8 39.8044 32.8 39.3994V2.73332C32.8 2.32835 32.4717 2 32.0667 2H26.2001C25.7951 2 25.4668 2.32835 25.4668 2.73332V39.3994C25.4668 39.8044 25.7951 40.1327 26.2001 40.1327ZM26.9334 3.46664H31.3334V38.6661H26.9334V3.46664Z" fill="black" stroke="black" stroke-width="0.4"/>
<path d="M36.4677 40.1328H42.3343C42.7392 40.1328 43.0676 39.8044 43.0676 39.3995V21.7997C43.0676 21.3948 42.7392 21.0664 42.3343 21.0664H36.4677C36.0627 21.0664 35.7344 21.3948 35.7344 21.7997V39.3995C35.7344 39.8044 36.0627 40.1328 36.4677 40.1328ZM37.201 22.5331H41.6009V38.6661H37.201V22.5331Z" fill="black" stroke="black" stroke-width="0.4"/>
</g>
<g filter="url(#filter0_d)">
<rect x="31" y="32" width="26" height="26" rx="13" fill="#7D71DE"/>
</g>
<path d="M41.518 48.446C44.682 46.2527 46.264 44.4327 46.264 42.986C46.264 42.5473 46.1567 42.202 45.942 41.95C45.7367 41.698 45.41 41.572 44.962 41.572C44.038 41.572 43.548 42.202 43.492 43.462H41.574C41.63 42.2953 41.9847 41.4133 42.638 40.816C43.2913 40.2093 44.1173 39.906 45.116 39.906C46.1333 39.906 46.9127 40.172 47.454 40.704C48.0047 41.2267 48.28 41.9267 48.28 42.804C48.28 43.4947 48.0747 44.19 47.664 44.89C47.2627 45.5807 46.7493 46.22 46.124 46.808C45.4987 47.3867 44.8407 47.886 44.15 48.306H48.476V49.916H41.518V48.446Z" fill="white"/>
<defs>
<filter id="filter0_d" x="23" y="28" width="42" height="42" filterUnits="userSpaceOnUse" color-interpolation-filters="sRGB">
<feFlood flood-opacity="0" result="BackgroundImageFix"/>
<feColorMatrix in="SourceAlpha" type="matrix" values="0 0 0 0 0 0 0 0 0 0 0 0 0 0 0 0 0 0 127 0" result="hardAlpha"/>
<feOffset dy="4"/>
<feGaussianBlur stdDeviation="4"/>
<feComposite in2="hardAlpha" operator="out"/>
<feColorMatrix type="matrix" values="0 0 0 0 0.407843 0 0 0 0 0.415686 0 0 0 0 0.917647 0 0 0 0.22 0"/>
<feBlend mode="normal" in2="BackgroundImageFix" result="effect1_dropShadow"/>
<feBlend mode="normal" in="SourceGraphic" in2="effect1_dropShadow" result="shape"/>
</filter>
<clipPath id="clip0">
<rect width="44" height="44" fill="white" transform="translate(2 2)"/>
</clipPath>
</defs>
</svg>
