<svg width="55" height="70" viewBox="0 0 55 70" fill="none" xmlns="http://www.w3.org/2000/svg">
<g clip-path="url(#clip0)">
<path d="M15.6668 30.1334H14.2001C13.7951 30.1334 13.4668 30.4617 13.4668 30.8667C13.4668 31.2717 13.7951 31.6 14.2001 31.6H15.6668C16.0718 31.6 16.4001 31.2717 16.4001 30.8667C16.4001 30.4617 16.0718 30.1334 15.6668 30.1334Z" fill="black" stroke="black" stroke-width="0.2"/>
<path d="M35.4135 30.1334H19.6565C19.294 30.1334 19 30.4617 19 30.8667C19 31.2717 19.294 31.6 19.6565 31.6H35.4135C35.776 31.6 36.07 31.2717 36.07 30.8667C36.07 30.4617 35.776 30.1334 35.4135 30.1334Z" fill="black" stroke="black" stroke-width="0.2"/>
<path d="M15.6668 23.7334H14.2001C13.7951 23.7334 13.4668 24.0617 13.4668 24.4667C13.4668 24.8717 13.7951 25.2001 14.2001 25.2001H15.6668C16.0718 25.2001 16.4001 24.8717 16.4001 24.4667C16.4001 24.0617 16.0718 23.7334 15.6668 23.7334Z" fill="black" stroke="black" stroke-width="0.2"/>
<path d="M35.4135 23.7334H19.6565C19.294 23.7334 19 24.0617 19 24.4667C19 24.8717 19.294 25.2001 19.6565 25.2001H35.4135C35.776 25.2001 36.07 24.8717 36.07 24.4667C36.07 24.0617 35.776 23.7334 35.4135 23.7334Z" fill="black" stroke="black" stroke-width="0.2"/>
<path d="M15.6668 18.3335H14.2001C13.7951 18.3335 13.4668 18.6618 13.4668 19.0668C13.4668 19.4718 13.7951 19.8002 14.2001 19.8002H15.6668C16.0718 19.8002 16.4001 19.4718 16.4001 19.0668C16.4001 18.6618 16.0718 18.3335 15.6668 18.3335Z" fill="black" stroke="black" stroke-width="0.2"/>
<path d="M35.4135 18.3335H19.6565C19.294 18.3335 19 18.6618 19 19.0668C19 19.4718 19.294 19.8002 19.6565 19.8002H35.4135C35.776 19.8002 36.07 19.4718 36.07 19.0668C36.07 18.6618 35.776 18.3335 35.4135 18.3335Z" fill="black" stroke="black" stroke-width="0.2"/>
<path d="M41.3232 11.9538C41.3195 11.8895 41.3069 11.8261 41.2858 11.7653C41.2777 11.7419 41.2718 11.7191 41.2616 11.6964C41.2259 11.6167 41.1762 11.5439 41.1149 11.4815L30.8482 1.21487C30.7859 1.15354 30.7131 1.10386 30.6333 1.0682C30.6106 1.05793 30.5879 1.05207 30.5652 1.044C30.5038 1.02292 30.4399 1.01008 30.3752 1.00587C30.3627 1.00807 30.3488 1 30.3327 1H9.79935C9.39437 1 9.06602 1.32835 9.06602 1.73333V3.93333H5.39935C4.99437 3.93333 4.66602 4.26168 4.66602 4.66667V44.2667C4.66602 44.6716 4.99437 45 5.39935 45H36.1994C36.6043 45 36.9327 44.6716 36.9327 44.2667V40.6H40.5993C41.0043 40.6 41.3327 40.2717 41.3327 39.8667V12C41.3327 11.9839 41.3246 11.9699 41.3232 11.9538ZM31.066 3.5036L38.8291 11.2667H31.066V3.5036ZM35.466 43.5333H6.13268V5.4H9.06602V39.8667C9.06602 40.2717 9.39437 40.6 9.79935 40.6H35.466V43.5333ZM39.866 39.1333H10.5327V2.46667H29.5993V12C29.5993 12.405 29.9277 12.7333 30.3327 12.7333H39.866V39.1333Z" fill="black" stroke="black" stroke-width="0.4"/>
<path d="M18.6001 7.59998H14.2001C13.7951 7.59998 13.4668 7.92833 13.4668 8.33331V12.7333C13.4668 13.1383 13.7951 13.4666 14.2001 13.4666H18.6001C19.0051 13.4666 19.3335 13.1383 19.3335 12.7333V8.33331C19.3335 7.92833 19.0051 7.59998 18.6001 7.59998ZM17.8668 12H14.9335V9.06664H17.8668V12Z" fill="black"/>
</g>
<g filter="url(#filter0_d)">
<rect x="21" y="32" width="26" height="26" rx="13" fill="#7D71DE"/>
</g>
<path d="M32.168 41.964V40.116H35.724V50H33.652V41.964H32.168Z" fill="white"/>
<defs>
<filter id="filter0_d" x="13" y="28" width="42" height="42" filterUnits="userSpaceOnUse" color-interpolation-filters="sRGB">
<feFlood flood-opacity="0" result="BackgroundImageFix"/>
<feColorMatrix in="SourceAlpha" type="matrix" values="0 0 0 0 0 0 0 0 0 0 0 0 0 0 0 0 0 0 127 0" result="hardAlpha"/>
<feOffset dy="4"/>
<feGaussianBlur stdDeviation="4"/>
<feComposite in2="hardAlpha" operator="out"/>
<feColorMatrix type="matrix" values="0 0 0 0 0.407843 0 0 0 0 0.415686 0 0 0 0 0.917647 0 0 0 0.22 0"/>
<feBlend mode="normal" in2="BackgroundImageFix" result="effect1_dropShadow"/>
<feBlend mode="normal" in="SourceGraphic" in2="effect1_dropShadow" result="shape"/>
</filter>
<clipPath id="clip0">
<rect width="44" height="44" fill="white" transform="translate(1 1)"/>
</clipPath>
</defs>
</svg>
