<svg width="184" height="63" viewBox="0 0 184 63" fill="none" xmlns="http://www.w3.org/2000/svg">
<path d="M147.741 17.9312C145.386 17.9312 143.479 19.7042 143.479 21.8981C143.479 24.0825 145.386 25.8555 147.741 25.8555C150.091 25.8555 151.998 24.0825 151.998 21.8981C151.998 19.7042 150.091 17.9312 147.741 17.9312ZM147.741 25.1463C145.81 25.1463 144.247 23.6901 144.247 21.8981C144.247 20.1014 145.81 18.6451 147.741 18.6451C149.672 18.6451 151.23 20.1014 151.23 21.8981C151.23 23.6901 149.672 25.1463 147.741 25.1463ZM75.3008 18.4465V31.1842C75.3008 38.3001 79.7085 39.4821 83.4005 39.4821C88.863 39.4821 91.3918 35.9218 91.3918 31.1133V18.4418H87.7799V31.5435C87.7799 33.1984 87.229 36.2859 83.4005 36.2244C79.9157 36.1629 79.28 33.0093 79.28 30.9809V18.4465H75.3008ZM106.494 19.2787C106.494 19.2787 104.186 18.1534 101.563 18.1534C98.3001 18.1534 94.1937 19.8035 94.1937 24.3189C94.1937 27.4489 96.5342 28.9289 98.1258 29.6901C98.9735 30.0967 100 30.5506 100.848 30.9998C101.286 31.2362 103.023 31.813 103.023 33.6617C103.023 35.6476 100.819 36.319 99.8305 36.319C96.3081 36.319 93.9065 34.7398 93.9065 34.7398L94.2785 38.7114C94.2785 38.7114 95.7195 39.4348 100.028 39.4443C104.139 39.4301 107.101 36.8249 107.101 33.2409C107.101 30.4844 105.194 28.8485 103.56 28.0683C102.279 27.4537 101.535 27.1132 100.419 26.5931C99.3031 26.073 98.1494 25.1794 98.1494 23.7941C98.1494 22.3094 99.5339 21.2409 101.563 21.2409C104.558 21.2409 105.759 22.5742 106.494 22.9903V19.2787ZM135.902 18.4134H131.57L132.257 20.1392L125.523 37.8462L118.578 18.4134H114.245L114.933 20.1392L107.756 39.0187H111.674L112.927 35.4253H120.348L121.596 39.0187H129.003L130.261 35.4253H137.678L138.93 39.0187H143.272L135.902 18.4134ZM113.901 32.631L116.783 24.5648L119.355 32.631H113.901ZM131.231 32.631L134.103 24.5648L136.679 32.631H131.231Z" fill="#02041A" fill-opacity="0.8"/>
<path d="M39.0352 26.4267L39.1178 29.2523C39.1178 29.2523 39.8203 28.7399 40.6075 28.7399C41.3968 28.7399 42.2853 29.2979 42.2853 29.2979L50.0977 33.7977L50.6928 31.246L42.2833 26.4018C42.2833 26.4018 41.3989 25.8458 40.6075 25.8458C39.8162 25.8458 39.0372 26.4267 39.0372 26.4267" fill="#02041A" fill-opacity="0.8"/>
<path d="M39.0352 22.7338L39.1178 25.5594C39.1178 25.5594 39.8203 25.0449 40.6075 25.0449C41.3968 25.0449 42.2853 25.605 42.2853 25.605L50.8601 30.5425L51.4552 27.9908L42.2853 22.7089C42.2853 22.7089 41.3968 22.155 40.6075 22.155C39.8162 22.155 39.0372 22.7338 39.0372 22.7338" fill="#02041A" fill-opacity="0.8"/>
<path d="M53.734 18.2383L54.5192 21.5721L65.2594 27.7544C65.2594 27.7544 66.1024 28.3104 66.933 28.3104C67.7636 28.3104 68.5054 27.7295 68.5054 27.7295L68.4227 24.9039C68.4227 24.9039 67.7512 25.4163 66.933 25.4163C66.1127 25.4163 65.2594 24.8583 65.2594 24.8583L56.9511 20.0743L56.3767 17.9312C56.3767 17.84 56.4593 17.7985 56.4903 17.7922L57.8954 17.3566C58.0855 17.3566 58.195 17.5184 58.195 17.6532L58.2693 17.8068C58.321 17.8337 58.5318 17.7321 58.5462 17.7238V16.8774C58.5462 16.7372 58.5185 16.5984 58.4646 16.4691C58.4108 16.3398 58.3319 16.2225 58.2325 16.124C58.1331 16.0256 58.0152 15.948 57.8857 15.8956C57.7562 15.8433 57.6176 15.8174 57.478 15.8193H56.073C56.073 15.8193 55.8663 15.3422 55.2692 15.3422H52.5996C51.8971 15.3422 51.7256 15.9977 51.7256 15.9977L49.8722 23.3874L42.2872 19.0183C42.2872 19.0183 41.4648 18.4582 40.6094 18.4582C39.754 18.4582 39.0391 19.0391 39.0391 19.0391L39.1196 21.8667C39.1196 21.8667 39.7519 21.3543 40.6073 21.3543C41.4627 21.3543 42.2872 21.9144 42.2872 21.9144L51.6203 27.2855L53.734 18.2383Z" fill="#02041A" fill-opacity="0.8"/>
<path d="M54.7285 22.4872L55.5137 25.8356L65.2579 31.4452C65.2579 31.4452 66.1299 32.0053 66.9316 32.0053C67.7333 32.0053 68.504 31.4224 68.504 31.4224L68.4234 28.5968C68.4234 28.5968 67.7994 29.1092 66.9316 29.1092C66.0638 29.1092 65.2579 28.5532 65.2579 28.5532L54.7285 22.4872Z" fill="#02041A" fill-opacity="0.8"/>
<path d="M55.7266 26.7545L56.5117 30.105L65.258 35.1379C65.258 35.1379 66.13 35.696 66.9317 35.696C67.7333 35.696 68.504 35.1151 68.504 35.1151L68.4214 32.2895C68.4214 32.2895 67.8015 32.8019 66.9317 32.8019C66.0638 32.8019 65.258 32.2459 65.258 32.2459L55.7266 26.7545Z" fill="#02041A" fill-opacity="0.8"/>
<path d="M56.7285 31.026L57.5095 34.3702L65.2579 38.8306C65.2579 38.8306 66.1298 39.3907 66.9315 39.3907C67.7311 39.3907 68.5039 38.8078 68.5039 38.8078L68.4212 35.9842C68.4212 35.9842 67.8014 36.4946 66.9315 36.4946C66.0616 36.4946 65.2579 35.9365 65.2579 35.9365L56.7285 31.026Z" fill="#02041A" fill-opacity="0.8"/>
<path d="M39.0352 30.1195L39.1178 32.945C39.1178 32.945 39.8203 32.4326 40.6075 32.4326C41.3968 32.4326 42.2853 32.9928 42.2853 32.9928L49.3373 37.0527L49.9345 34.501L42.2853 30.0946C42.2853 30.0946 41.3968 29.5406 40.6075 29.5406C39.8162 29.5406 39.0372 30.1215 39.0372 30.1215" fill="#02041A" fill-opacity="0.8"/>
<path d="M148.585 22.0163C148.585 22.0163 149.433 21.7279 149.433 20.9572C149.433 20.1818 148.656 19.7468 147.704 19.7468C146.753 19.7468 146.174 19.9643 146.174 19.9643V23.7563H147.304V22.371H147.643L148.839 23.7421H150.275L148.585 22.0163ZM147.831 21.7279H147.304V20.4655C147.304 20.4655 148.241 20.3851 148.241 21.0045C148.241 21.6381 147.827 21.7279 147.827 21.7279H147.831Z" fill="#02041A" fill-opacity="0.8"/>
<path d="M54.5048 30.0649C54.4983 30.8411 53.9345 31.4271 53.1969 31.4206C52.4634 31.4146 51.9061 30.8197 51.9122 30.0436C51.9186 29.2517 52.4745 28.6777 53.227 28.6838C53.9568 28.6898 54.5113 29.2888 54.5048 30.0649ZM52.0823 30.0404C52.0767 30.7047 52.5765 31.2491 53.1978 31.2542C53.8186 31.2597 54.3291 30.7233 54.3347 30.0557C54.3374 29.7376 54.2192 29.4135 54.0198 29.1989C53.8251 28.9874 53.5159 28.853 53.2344 28.8507C52.5775 28.8451 52.0883 29.3537 52.0823 30.0404ZM53.1524 29.2772C53.3165 29.2791 53.393 29.287 53.4867 29.3189C53.6489 29.3746 53.7523 29.5299 53.7509 29.7052C53.7495 29.8915 53.6327 30.0385 53.4449 30.0951L53.7523 30.835L53.5349 30.8336L53.2502 30.1322L53.2354 30.1285L53.0981 30.1271L52.9516 30.1261L52.9284 30.1298L52.922 30.8285L52.7244 30.8267L52.7374 29.274L53.1524 29.2772ZM53.1348 29.968C53.3262 29.9699 53.3995 29.9583 53.4584 29.9129C53.5191 29.8702 53.5567 29.7928 53.5571 29.7079C53.5585 29.5957 53.508 29.5137 53.4106 29.4784C53.3568 29.4534 53.2715 29.446 53.1009 29.4441L52.9345 29.4432L52.9294 29.9666L53.1348 29.968Z" fill="#ED1D24"/>
</svg>
