<svg width="163" height="167" viewBox="0 0 163 167" fill="none" xmlns="http://www.w3.org/2000/svg">
<path fill-rule="evenodd" clip-rule="evenodd" d="M72.0643 79.0602C68.9485 80.7369 66.7164 82.6009 65.0914 84.1441C49.609 98.9635 55.6075 118.591 66.3596 133.949C69.2383 138.066 75.0431 143.403 81.0303 145.409C85.2368 146.821 89.525 146.623 93.0565 143.477C96.9192 140.063 98.2759 134.367 98.1153 128.13C97.8903 119.107 94.5283 108.952 91.7083 103.462C88.4537 97.1306 82.3803 87.9068 75.2905 79.6965C78.7937 78.1527 83.2416 76.897 88.9303 76.4722C91.4581 76.2743 94.3767 76.707 97.3887 77.5834C96.4594 82.2684 96.415 87.3463 97.3974 92.6384C98.2295 97.0857 101.728 106.094 106.581 111.861C110.049 115.975 114.216 118.411 118.571 117.005C123.977 115.253 125.86 111.111 125.753 106.311C125.607 99.5532 121.359 91.4587 118.056 87.67C114.21 83.264 106.924 78.7279 99.7464 76.2703C103.72 60.6049 118.287 50.0391 136.39 52.2455C136.929 52.3054 137.427 51.9148 137.504 51.375C137.566 50.8238 137.169 50.32 136.63 50.2601C117.475 47.9295 102.038 59.0882 97.8141 75.6597C94.606 74.7346 91.4796 74.2682 88.7785 74.4774C82.5123 74.9495 77.6678 76.3795 73.9105 78.125C72.5562 76.6097 71.1674 75.1375 69.7509 73.73C63.3927 67.4052 56.5898 62.5267 50.5039 61.3538C36.4408 58.6415 25.5143 66.7221 19.4301 78.2499C13.4082 89.6698 12.1677 104.436 17.2495 115.144C17.4868 115.643 18.0891 115.86 18.5844 115.62C19.0797 115.381 19.2945 114.786 19.0571 114.287C14.2207 104.097 15.4589 90.0429 21.199 79.1845C26.8769 68.4339 37.0104 60.79 50.1202 63.3138C55.914 64.4408 62.2975 69.1381 68.3417 75.149C69.6005 76.4007 70.8394 77.707 72.0643 79.0602ZM99.3202 78.1953C98.4835 82.5866 98.4472 87.3291 99.3727 92.2792C100.164 96.5125 103.479 105.072 108.117 110.578C110.992 113.99 114.342 116.273 117.95 115.099C122.365 113.678 123.836 110.261 123.751 106.351C123.63 100.062 119.627 92.516 116.544 88.9814C112.934 84.8403 106.075 80.5346 99.3202 78.1953ZM73.4253 80.5968C70.2964 82.2307 68.0799 84.0752 66.4767 85.5909C51.7945 99.6395 57.8078 118.244 67.9983 132.803C70.6778 136.638 76.0725 141.635 81.6675 143.514C85.1729 144.686 88.7776 144.609 91.7327 141.983C95.1951 138.925 96.2615 133.772 96.1225 128.186C95.9053 119.479 92.6443 109.669 89.9274 104.374C86.6731 98.0425 80.561 88.7789 73.4253 80.5968Z" fill="black"/>
<path fill-rule="evenodd" clip-rule="evenodd" d="M135.588 51.2394C134.708 51.7561 132.181 53.2526 131.806 53.4892C130.757 54.1586 130.326 54.6422 129.943 55.183C129.642 55.6217 129.389 56.1176 128.724 56.866C128.352 57.2748 128.406 57.9161 128.82 58.2806C129.235 58.6451 129.86 58.5971 130.231 58.1884C130.824 57.5019 131.138 57.0172 131.408 56.5887C131.726 56.0997 131.993 55.7343 132.883 55.176C133.313 54.9005 135.873 53.6277 136.918 52.8148C137.465 52.3925 137.706 51.9412 137.743 51.6885C137.795 51.3267 137.721 50.8878 137.445 50.408C137.089 49.7936 136.319 48.9897 135.477 48.0699C134.684 47.2072 133.807 46.2144 133.219 45.1229C132.73 44.2018 132.457 43.2154 132.765 42.1784C132.926 41.6512 132.637 41.0983 132.109 40.9364C131.58 40.7746 131.016 41.0707 130.856 41.5979C130.372 43.1522 130.714 44.6706 131.459 46.0672C132.12 47.3033 133.096 48.438 134.004 49.4222C134.544 50.0131 135.059 50.5466 135.424 51.0032C135.483 51.0761 135.536 51.1578 135.588 51.2394Z" fill="black"/>
</svg>
